<svg width="460" height="281" viewBox="0 0 460 281" fill="none" xmlns="http://www.w3.org/2000/svg">
<path d="M123.548 196.62H42.0854V199.626H123.548V196.62Z" fill="#F2F2F2"/>
<path d="M307.965 196.62H226.502V199.626H307.965V196.62Z" fill="#F2F2F2"/>
<path d="M433.408 196.62H351.945V199.626H433.408V196.62Z" fill="#F2F2F2"/>
<path d="M433.885 151.081C433.136 151.469 432.439 151.952 431.812 152.518C431.175 151.949 430.466 151.466 429.705 151.081C428.956 151.469 428.259 151.952 427.632 152.518C426.994 151.949 426.286 151.466 425.525 151.081C425.525 151.081 422.275 152.683 422.284 154.641C422.285 154.69 422.287 154.739 422.291 154.787C422.402 156.069 425.761 156.396 427.607 155.792C428.973 156.182 430.421 156.182 431.787 155.792C433.625 156.405 437.052 156.054 437.153 154.757C437.156 154.709 437.158 154.66 437.158 154.611C437.149 152.653 433.885 151.081 433.885 151.081Z" fill="#F2F2F2"/>
<path d="M3.48437 83.7323L0.601685 81.4204L16.7428 66.9716H57.6722V79.6867L31.1548 97.6033L3.48437 83.7323Z" fill="#3F3D56"/>
<path d="M65.1349 75.0763V67.2602H59.7008V69.1743L57.6722 66.9716L44.4138 81.4204L39.2256 84.8882L31.1808 143.814L43.3128 155.978H71.508V81.9986L65.1349 75.0763Z" fill="#CCCCCC"/>
<path d="M44.4137 81.4205H0.601929V155.978H44.4137V81.4205Z" fill="#F2F2F2"/>
<path d="M25.6784 137.772H17.6078V155.978H25.6784V137.772Z" fill="#CCCCCC"/>
<path d="M8.96088 142.973V140.084H5.50195V142.973H8.67251H8.96088Z" fill="#3F3D56"/>
<path d="M8.67251 145.285H5.50195V148.175H8.96088V145.285H8.67251Z" fill="#3F3D56"/>
<path d="M14.7254 140.084H11.2666V142.974H14.7254V140.084Z" fill="#3F3D56"/>
<path d="M14.7254 145.286H11.2666V148.175H14.7254V145.286Z" fill="#3F3D56"/>
<path d="M32.5961 142.973V140.084H29.1372V142.973H32.3078H32.5961Z" fill="#3F3D56"/>
<path d="M32.3078 145.285H29.1372V148.175H32.5961V145.285H32.3078Z" fill="#3F3D56"/>
<path d="M38.3607 140.084H34.9019V142.974H38.3607V140.084Z" fill="#3F3D56"/>
<path d="M38.3607 145.286H34.9019V148.175H38.3607V145.286Z" fill="#3F3D56"/>
<path d="M56.8077 85.1774V82.2872H53.3488V85.1774H56.5198H56.8077Z" fill="#3F3D56"/>
<path d="M56.5198 87.4893H53.3488V90.3789H56.8077V87.4893H56.5198Z" fill="#3F3D56"/>
<path d="M62.5725 82.2874H59.1136V85.1773H62.5725V82.2874Z" fill="#3F3D56"/>
<path d="M62.5725 87.4891H59.1136V90.379H62.5725V87.4891Z" fill="#3F3D56"/>
<path d="M56.8077 101.36V98.4707H53.3488V101.36H56.5198H56.8077Z" fill="#3F3D56"/>
<path d="M56.5198 103.672H53.3488V106.562H56.8077V103.672H56.5198Z" fill="#3F3D56"/>
<path d="M62.5725 98.4704H59.1136V101.36H62.5725V98.4704Z" fill="#3F3D56"/>
<path d="M62.5725 103.672H59.1136V106.562H62.5725V103.672Z" fill="#3F3D56"/>
<path d="M56.8077 117.543V114.654H53.3488V117.543H56.5198H56.8077Z" fill="#3F3D56"/>
<path d="M56.5198 119.855H53.3488V122.745H56.8077V119.855H56.5198Z" fill="#3F3D56"/>
<path d="M62.5725 114.653H59.1136V117.543H62.5725V114.653Z" fill="#3F3D56"/>
<path d="M62.5725 119.855H59.1136V122.745H62.5725V119.855Z" fill="#3F3D56"/>
<path d="M56.8077 133.726V130.837H53.3488V133.726H56.5198H56.8077Z" fill="#3F3D56"/>
<path d="M56.5198 136.038H53.3488V138.928H56.8077V136.038H56.5198Z" fill="#3F3D56"/>
<path d="M62.5725 130.836H59.1136V133.726H62.5725V130.836Z" fill="#3F3D56"/>
<path d="M62.5725 136.038H59.1136V138.928H62.5725V136.038Z" fill="#3F3D56"/>
<path d="M38.9372 85.1773H5.50183V92.1128H38.9372V85.1773Z" fill="#3F3D56"/>
<path d="M38.9372 99.0484H5.50183V105.984H38.9372V99.0484Z" fill="#3F3D56"/>
<path d="M38.9372 112.92H5.50183V119.855H38.9372V112.92Z" fill="#3F3D56"/>
<path d="M38.9372 126.791H5.50183V133.726H38.9372V126.791Z" fill="#3F3D56"/>
<path d="M69.0708 151.5C68.3216 151.888 67.6249 152.371 66.9978 152.937C66.3603 152.368 65.652 151.886 64.8907 151.5C64.1414 151.888 63.4448 152.371 62.8176 152.937C62.1802 152.368 61.4719 151.886 60.7106 151.5C60.7106 151.5 57.4612 153.102 57.4702 155.06C57.4704 155.109 57.4727 155.158 57.4769 155.206C57.5878 156.488 60.9472 156.815 62.7927 156.211C64.1589 156.601 65.6067 156.601 66.9729 156.211C68.8105 156.824 72.2382 156.473 72.3384 155.176C72.3422 155.128 72.3439 155.079 72.3437 155.03C72.3348 153.072 69.0708 151.5 69.0708 151.5Z" fill="#FF9900"/>
<path d="M54.064 83.7323L51.1813 81.4204L67.3224 66.9716H108.252V79.6867L81.7344 97.6033L54.064 83.7323Z" fill="#3F3D56"/>
<path d="M115.714 75.0763V67.2602H110.28V69.1743L108.252 66.9716L94.9934 81.4204L89.8052 84.8882L81.7604 143.814L93.8924 155.978H122.088V81.9986L115.714 75.0763Z" fill="#CCCCCC"/>
<path d="M94.9932 81.4205H51.1814V155.978H94.9932V81.4205Z" fill="#F2F2F2"/>
<path d="M76.2579 137.772H68.1873V155.978H76.2579V137.772Z" fill="#CCCCCC"/>
<path d="M59.5405 142.973V140.084H56.0815V142.973H59.2521H59.5405Z" fill="#3F3D56"/>
<path d="M59.2521 145.285H56.0815V148.175H59.5405V145.285H59.2521Z" fill="#3F3D56"/>
<path d="M65.305 140.084H61.8462V142.974H65.305V140.084Z" fill="#3F3D56"/>
<path d="M65.305 145.286H61.8462V148.175H65.305V145.286Z" fill="#3F3D56"/>
<path d="M83.1757 142.973V140.084H79.7168V142.973H82.8874H83.1757Z" fill="#3F3D56"/>
<path d="M82.8874 145.285H79.7168V148.175H83.1757V145.285H82.8874Z" fill="#3F3D56"/>
<path d="M88.9403 140.084H85.4814V142.974H88.9403V140.084Z" fill="#3F3D56"/>
<path d="M88.9403 145.286H85.4814V148.175H88.9403V145.286Z" fill="#3F3D56"/>
<path d="M107.387 85.1774V82.2872H103.928V85.1774H107.099H107.387Z" fill="#3F3D56"/>
<path d="M107.099 87.4893H103.928V90.3789H107.387V87.4893H107.099Z" fill="#3F3D56"/>
<path d="M113.152 82.2874H109.693V85.1773H113.152V82.2874Z" fill="#3F3D56"/>
<path d="M113.152 87.4891H109.693V90.379H113.152V87.4891Z" fill="#3F3D56"/>
<path d="M107.387 101.36V98.4707H103.928V101.36H107.099H107.387Z" fill="#3F3D56"/>
<path d="M107.099 103.672H103.928V106.562H107.387V103.672H107.099Z" fill="#3F3D56"/>
<path d="M113.152 98.4704H109.693V101.36H113.152V98.4704Z" fill="#3F3D56"/>
<path d="M113.152 103.672H109.693V106.562H113.152V103.672Z" fill="#3F3D56"/>
<path d="M107.387 117.543V114.654H103.928V117.543H107.099H107.387Z" fill="#3F3D56"/>
<path d="M107.099 119.855H103.928V122.745H107.387V119.855H107.099Z" fill="#3F3D56"/>
<path d="M113.152 114.653H109.693V117.543H113.152V114.653Z" fill="#3F3D56"/>
<path d="M113.152 119.855H109.693V122.745H113.152V119.855Z" fill="#3F3D56"/>
<path d="M107.387 133.726V130.837H103.928V133.726H107.099H107.387Z" fill="#3F3D56"/>
<path d="M107.099 136.038H103.928V138.928H107.387V136.038H107.099Z" fill="#3F3D56"/>
<path d="M113.152 130.836H109.693V133.726H113.152V130.836Z" fill="#3F3D56"/>
<path d="M113.152 136.038H109.693V138.928H113.152V136.038Z" fill="#3F3D56"/>
<path d="M89.5168 85.1773H56.0814V92.1128H89.5168V85.1773Z" fill="#3F3D56"/>
<path d="M89.5168 99.0484H56.0814V105.984H89.5168V99.0484Z" fill="#3F3D56"/>
<path d="M89.5168 112.92H56.0814V119.855H89.5168V112.92Z" fill="#3F3D56"/>
<path d="M89.5168 126.791H56.0814V133.726H89.5168V126.791Z" fill="#3F3D56"/>
<path d="M60.8466 28.7019C68.7519 28.7019 75.1605 22.2768 75.1605 14.3509C75.1605 6.42514 68.7519 0 60.8466 0C52.9413 0 46.5327 6.42514 46.5327 14.3509C46.5327 22.2768 52.9413 28.7019 60.8466 28.7019Z" fill="#FF6584"/>
<path d="M152.583 100.439H151.187V155.716H152.583V100.439Z" fill="#3F3D56"/>
<path d="M166.204 116.526C166.207 117.134 166.201 117.739 166.187 118.341C165.687 140.101 139.666 140.221 138.966 118.467C138.946 117.865 138.935 117.26 138.932 116.652C138.821 92.3285 152.366 72.5477 152.366 72.5477C152.366 72.5477 166.092 92.2025 166.204 116.526Z" fill="#E6E6E6"/>
<path d="M147.729 151.378C146.979 151.766 146.283 152.249 145.655 152.814C145.018 152.246 144.31 151.763 143.548 151.378C142.799 151.766 142.102 152.249 141.475 152.814C140.838 152.246 140.13 151.763 139.368 151.378C139.368 151.378 136.119 152.98 136.128 154.938C136.128 154.987 136.13 155.035 136.135 155.084C136.246 156.366 139.605 156.692 141.45 156.088C142.817 156.479 144.264 156.479 145.631 156.088C147.468 156.702 150.896 156.35 150.996 155.054C151 155.005 151.002 154.957 151.001 154.908C150.992 152.95 147.729 151.378 147.729 151.378Z" fill="#CCCCCC"/>
<path d="M186.785 132.281L185.055 129.391L201.196 102.948H242.702V106.993L227.714 135.749L210.42 139.217L186.785 132.281Z" fill="#3F3D56"/>
<path d="M249.847 123.66V102.045H244.413V104.896L242.702 102.948L228.867 129.391L226.561 131.703L223.679 143.263L228.867 155.978H255.384V129.969L249.847 123.66Z" fill="#CCCCCC"/>
<path d="M228.867 129.392H185.055V155.978H228.867V129.392Z" fill="#F2F2F2"/>
<path d="M222.814 137.772H213.59V145.863H222.814V137.772Z" fill="#3F3D56"/>
<path d="M209.843 137.483H201.773V155.978H209.843V137.483Z" fill="#CCCCCC"/>
<path d="M192.549 140.373V137.483H189.091V140.373H192.261H192.549Z" fill="#3F3D56"/>
<path d="M192.261 142.685H189.091V145.574H192.549V142.685H192.261Z" fill="#3F3D56"/>
<path d="M198.314 137.483H194.855V140.373H198.314V137.483Z" fill="#3F3D56"/>
<path d="M198.314 142.685H194.855V145.574H198.314V142.685Z" fill="#3F3D56"/>
<path d="M241.261 141.081V138.191H237.802V141.081H240.973H241.261Z" fill="#3F3D56"/>
<path d="M240.973 143.393H237.802V146.282H241.261V143.393H240.973Z" fill="#3F3D56"/>
<path d="M247.026 138.191H243.567V141.081H247.026V138.191Z" fill="#3F3D56"/>
<path d="M247.026 143.393H243.567V146.283H247.026V143.393Z" fill="#3F3D56"/>
<path d="M204.925 113.816L204.469 113.056L208.717 106.098H219.637V107.163L215.694 114.729L211.143 115.641L204.925 113.816Z" fill="#3F3D56"/>
<path d="M219.637 106.098L215.997 113.056L215.391 113.665L214.632 116.706L215.997 120.051H222.974V113.208L219.637 106.098Z" fill="#CCCCCC"/>
<path d="M215.997 113.056H204.47V120.051H215.997V113.056Z" fill="#F2F2F2"/>
<path d="M209.353 116.071V114.691H207.702V116.071H209.216H209.353Z" fill="#3F3D56"/>
<path d="M209.216 117.175H207.702V118.554H209.353V117.175H209.216Z" fill="#3F3D56"/>
<path d="M212.106 114.691H210.454V116.07H212.106V114.691Z" fill="#3F3D56"/>
<path d="M212.106 117.174H210.454V118.554H212.106V117.174Z" fill="#3F3D56"/>
<path d="M239.036 132.281L237.307 129.391L253.448 102.948H294.954V106.993L279.966 135.749L262.672 139.217L239.036 132.281Z" fill="#3F3D56"/>
<path d="M302.099 123.66V102.045H296.665V104.896L294.954 102.948L281.119 129.391L278.813 131.703L275.93 143.263L281.119 155.978H307.636V129.969L302.099 123.66Z" fill="#CCCCCC"/>
<path d="M281.119 129.392H237.307V155.978H281.119V129.392Z" fill="#F2F2F2"/>
<path d="M275.066 137.772H265.842V145.863H275.066V137.772Z" fill="#3F3D56"/>
<path d="M262.095 137.483H254.024V155.978H262.095V137.483Z" fill="#CCCCCC"/>
<path d="M244.801 140.373V137.483H241.342V140.373H244.513H244.801Z" fill="#3F3D56"/>
<path d="M244.513 142.685H241.342V145.574H244.801V142.685H244.513Z" fill="#3F3D56"/>
<path d="M250.565 137.483H247.107V140.373H250.565V137.483Z" fill="#3F3D56"/>
<path d="M250.565 142.685H247.107V145.574H250.565V142.685Z" fill="#3F3D56"/>
<path d="M293.513 140.662V137.772H290.054V140.662H293.224H293.513Z" fill="#3F3D56"/>
<path d="M293.224 142.973H290.054V145.864H293.513V142.973H293.224Z" fill="#3F3D56"/>
<path d="M299.277 137.772H295.819V140.662H299.277V137.772Z" fill="#3F3D56"/>
<path d="M299.277 142.974H295.819V145.863H299.277V142.974Z" fill="#3F3D56"/>
<path d="M289.616 132.281L287.886 129.391L304.027 102.948H345.534V106.993L330.545 135.749L313.251 139.217L289.616 132.281Z" fill="#3F3D56"/>
<path d="M352.678 123.66V102.045H347.244V104.896L345.533 102.948L331.698 129.391L329.392 131.703L326.51 143.263L331.698 155.978H358.216V129.969L352.678 123.66Z" fill="#CCCCCC"/>
<path d="M331.698 129.392H287.886V155.978H331.698V129.392Z" fill="#F2F2F2"/>
<path d="M325.645 137.772H316.422V145.863H325.645V137.772Z" fill="#3F3D56"/>
<path d="M312.674 137.483H304.604V155.978H312.674V137.483Z" fill="#CCCCCC"/>
<path d="M295.38 140.373V137.483H291.922V140.373H295.092H295.38Z" fill="#3F3D56"/>
<path d="M295.092 142.685H291.922V145.574H295.38V142.685H295.092Z" fill="#3F3D56"/>
<path d="M301.145 137.483H297.686V140.373H301.145V137.483Z" fill="#3F3D56"/>
<path d="M301.145 142.685H297.686V145.574H301.145V142.685Z" fill="#3F3D56"/>
<path d="M344.092 140.662V137.772H340.633V140.662H343.804H344.092Z" fill="#3F3D56"/>
<path d="M343.804 142.973H340.633V145.864H344.092V142.973H343.804Z" fill="#3F3D56"/>
<path d="M349.857 137.772H346.398V140.662H349.857V137.772Z" fill="#3F3D56"/>
<path d="M349.857 142.974H346.398V145.863H349.857V142.974Z" fill="#3F3D56"/>
<path d="M255.922 114.236L255.467 113.475L259.714 106.517H270.635V107.582L266.691 115.148L262.141 116.06L255.922 114.236Z" fill="#3F3D56"/>
<path d="M270.635 106.517L266.995 113.475L266.388 114.083L265.63 117.125L266.995 120.471H273.972V113.627L270.635 106.517Z" fill="#CCCCCC"/>
<path d="M266.995 113.475H255.467V120.47H266.995V113.475Z" fill="#F2F2F2"/>
<path d="M260.351 116.49V115.11H258.699V116.49H260.213H260.351Z" fill="#3F3D56"/>
<path d="M260.213 117.593H258.699V118.973H260.351V117.593H260.213Z" fill="#3F3D56"/>
<path d="M263.103 115.11H261.452V116.49H263.103V115.11Z" fill="#3F3D56"/>
<path d="M263.103 117.593H261.452V118.973H263.103V117.593Z" fill="#3F3D56"/>
<path d="M306.92 113.816L306.465 113.056L310.712 106.098H321.632V107.163L317.689 114.729L313.139 115.641L306.92 113.816Z" fill="#3F3D56"/>
<path d="M321.632 106.098L317.992 113.056L317.385 113.665L316.627 116.706L317.992 120.051H324.969V113.208L321.632 106.098Z" fill="#CCCCCC"/>
<path d="M317.992 113.056H306.465V120.051H317.992V113.056Z" fill="#F2F2F2"/>
<path d="M311.349 116.071V114.691H309.697V116.071H311.211H311.349Z" fill="#3F3D56"/>
<path d="M311.211 117.175H309.697V118.554H311.349V117.175H311.211Z" fill="#3F3D56"/>
<path d="M314.101 114.691H312.449V116.07H314.101V114.691Z" fill="#3F3D56"/>
<path d="M314.101 117.174H312.449V118.554H314.101V117.174Z" fill="#3F3D56"/>
<path d="M341.867 132.281L340.138 129.391L356.279 102.948H397.785V106.993L382.797 135.749L365.502 139.217L341.867 132.281Z" fill="#3F3D56"/>
<path d="M404.93 106.657V102.045H399.495V104.896L397.785 102.948L383.949 129.391L381.644 131.703L378.761 143.263L383.949 155.978H410.467V129.969L404.93 106.657Z" fill="#CCCCCC"/>
<path d="M383.95 129.392H340.138V155.978H383.95V129.392Z" fill="#F2F2F2"/>
<path d="M377.897 137.772H368.673V145.863H377.897V137.772Z" fill="#3F3D56"/>
<path d="M364.926 137.483H356.856V155.978H364.926V137.483Z" fill="#CCCCCC"/>
<path d="M347.632 140.373V137.483H344.173V140.373H347.344H347.632Z" fill="#3F3D56"/>
<path d="M347.344 142.685H344.173V145.574H347.632V142.685H347.344Z" fill="#3F3D56"/>
<path d="M353.397 137.483H349.938V140.373H353.397V137.483Z" fill="#3F3D56"/>
<path d="M353.397 142.685H349.938V145.574H353.397V142.685Z" fill="#3F3D56"/>
<path d="M396.344 140.662V137.772H392.885V140.662H396.056H396.344Z" fill="#3F3D56"/>
<path d="M396.056 142.973H392.885V145.864H396.344V142.973H396.056Z" fill="#3F3D56"/>
<path d="M402.108 137.772H398.65V140.662H402.108V137.772Z" fill="#3F3D56"/>
<path d="M402.108 142.974H398.65V145.863H402.108V142.974Z" fill="#3F3D56"/>
<path d="M357.917 114.236L357.463 113.475L361.709 106.517H372.63V107.582L368.686 115.148L364.136 116.06L357.917 114.236Z" fill="#3F3D56"/>
<path d="M372.63 106.517L368.99 113.475L368.383 114.083L367.624 117.125L368.99 120.471H375.967V113.627L372.63 106.517Z" fill="#CCCCCC"/>
<path d="M368.99 113.475H357.462V120.47H368.99V113.475Z" fill="#F2F2F2"/>
<path d="M362.346 116.49V115.11H360.694V116.49H362.208H362.346Z" fill="#3F3D56"/>
<path d="M362.208 117.593H360.694V118.973H362.346V117.593H362.208Z" fill="#3F3D56"/>
<path d="M365.099 115.11H363.447V116.49H365.099V115.11Z" fill="#3F3D56"/>
<path d="M365.099 117.593H363.447V118.973H365.099V117.593Z" fill="#3F3D56"/>
<path d="M460 155.691H0.417969V156.529H460V155.691Z" fill="#3F3D56"/>
<path d="M459.582 234.061H0V234.9H459.582V234.061Z" fill="#3F3D56"/>
<path d="M429.94 100.43H428.544V155.691H429.94V100.43Z" fill="#3F3D56"/>
<path d="M443.557 116.513C443.56 117.12 443.554 117.725 443.54 118.328C443.04 140.081 417.027 140.201 416.327 118.453C416.307 117.851 416.296 117.247 416.293 116.639C416.181 92.3226 429.723 72.5477 429.723 72.5477C429.723 72.5477 443.445 92.1967 443.557 116.513Z" fill="#E6E6E6"/>
<path d="M153.673 209.808H138.966V212.149H153.673V209.808Z" fill="#3F3D56"/>
<path d="M260.009 210.333L256.975 211.036L141.651 211.098L140.614 208.676C138.805 204.521 138.184 199.943 138.821 195.455C139.318 192.109 140.562 188.785 143.389 187.341L148.507 153.166L212.31 153.052L236.995 173.013C236.995 173.013 248.639 172.804 254.965 180.699C256.967 183.2 258.437 186.514 258.832 190.907L259.081 195.014L260.009 210.333Z" fill="#FF9900"/>
<path d="M234.68 224.038C242.545 224.038 248.92 217.646 248.92 209.761C248.92 201.876 242.545 195.484 234.68 195.484C226.815 195.484 220.439 201.876 220.439 209.761C220.439 217.646 226.815 224.038 234.68 224.038Z" fill="#3F3D56"/>
<path d="M234.68 217.275C238.819 217.275 242.175 213.911 242.175 209.761C242.175 205.611 238.819 202.247 234.68 202.247C230.54 202.247 227.185 205.611 227.185 209.761C227.185 213.911 230.54 217.275 234.68 217.275Z" fill="#CCCCCC"/>
<path d="M164.412 224.076C172.276 224.076 178.652 217.684 178.652 209.799C178.652 201.914 172.276 195.521 164.412 195.521C156.547 195.521 150.171 201.914 150.171 209.799C150.171 217.684 156.547 224.076 164.412 224.076Z" fill="#3F3D56"/>
<path d="M164.412 217.313C168.551 217.313 171.907 213.949 171.907 209.799C171.907 205.649 168.551 202.284 164.412 202.284C160.272 202.284 156.917 205.649 156.917 209.799C156.917 213.949 160.272 217.313 164.412 217.313Z" fill="#CCCCCC"/>
<path d="M227.187 170.68L192.739 170.695H188.534L181.434 170.7V170.181L181.429 163.922L181.424 156.893H186.147L190.352 156.888L197.801 156.883H202.006L210.606 156.878L227.187 170.68Z" fill="white"/>
<path d="M175.829 170.705L157.623 170.715L157.618 167.133V160.875L157.613 156.908H160.279L164.484 156.903L175.824 156.898L175.829 170.705Z" fill="white"/>
<path d="M183.774 181H181.439V185.447H183.774V181Z" fill="#3F3D56"/>
<path d="M222.289 177L222.288 174.66L217.853 174.662L217.854 177.003L222.289 177Z" fill="#3F3D56"/>
<path d="M219.485 165.906H219.742C221.036 165.906 222.277 166.422 223.192 167.339C224.107 168.256 224.621 169.501 224.621 170.798C224.621 172.095 224.107 173.339 223.192 174.257C222.277 175.174 221.036 175.69 219.742 175.69H219.485V165.906Z" fill="#3F3D56"/>
<path d="M259.081 195.014C257.316 195.207 255.539 194.769 254.065 193.777C252.59 192.785 251.512 191.303 251.02 189.592C250.528 187.881 250.654 186.052 251.376 184.425C252.097 182.798 253.368 181.479 254.965 180.699C256.967 183.2 258.437 186.514 258.832 190.907L259.081 195.014Z" fill="#3F3D56"/>
<path d="M190.352 156.888L181.433 170.181L181.428 163.922L186.147 156.893L190.352 156.888Z" fill="#F2F2F2"/>
<path d="M164.484 156.903L157.618 167.133V160.875L160.279 156.908L164.484 156.903Z" fill="#F2F2F2"/>
<path d="M202.006 156.883L192.739 170.695H188.534L197.801 156.883H202.006Z" fill="#F2F2F2"/>
<path d="M340.763 180.394L349.697 180.398L349.698 178.977L340.764 178.972L340.763 180.394Z" fill="#3F3D56"/>
<path d="M276.171 179.293L278.014 179.72L348.066 179.758L348.696 178.286C349.795 175.762 350.172 172.982 349.785 170.255C349.484 168.223 348.728 166.204 347.01 165.326L343.902 144.567L305.145 144.498L290.151 156.623C290.151 156.623 283.077 156.496 279.235 161.292C277.849 163.076 277.03 165.236 276.886 167.493L276.734 169.988L276.171 179.293Z" fill="#3F3D56"/>
<path d="M291.557 187.618C296.334 187.618 300.207 183.735 300.207 178.945C300.207 174.156 296.334 170.273 291.557 170.273C286.779 170.273 282.907 174.156 282.907 178.945C282.907 183.735 286.779 187.618 291.557 187.618Z" fill="#3F3D56"/>
<path d="M291.557 183.51C294.071 183.51 296.11 181.466 296.11 178.945C296.11 176.425 294.071 174.381 291.557 174.381C289.042 174.381 287.004 176.425 287.004 178.945C287.004 181.466 289.042 183.51 291.557 183.51Z" fill="#CCCCCC"/>
<path d="M334.241 187.641C339.018 187.641 342.891 183.758 342.891 178.968C342.891 174.179 339.018 170.296 334.241 170.296C329.463 170.296 325.59 174.179 325.59 178.968C325.59 183.758 329.463 187.641 334.241 187.641Z" fill="#3F3D56"/>
<path d="M334.241 183.533C336.755 183.533 338.793 181.489 338.793 178.968C338.793 176.447 336.755 174.404 334.241 174.404C331.726 174.404 329.688 176.447 329.688 178.968C329.688 181.489 331.726 183.533 334.241 183.533Z" fill="#CCCCCC"/>
<path d="M296.108 155.206L317.033 155.215H319.588L323.901 155.218V154.903L323.904 151.101L323.907 146.831H321.038L318.483 146.828L313.959 146.825H311.404L306.18 146.822L296.108 155.206Z" fill="white"/>
<path d="M327.305 155.222L338.364 155.228L338.367 153.052V149.25L338.37 146.841H336.751L334.197 146.838L327.309 146.835L327.305 155.222Z" fill="white"/>
<path d="M322.479 164.176L323.897 164.177L323.898 161.475L322.48 161.475L322.479 164.176Z" fill="#3F3D56"/>
<path d="M301.778 159.047L301.778 157.625L299.084 157.623L299.083 159.045L301.778 159.047Z" fill="#3F3D56"/>
<path d="M300.785 158.25L300.629 158.25C299.843 158.249 299.09 157.936 298.534 157.378C297.979 156.821 297.667 156.065 297.667 155.277C297.668 154.489 297.98 153.733 298.536 153.176C299.093 152.619 299.847 152.307 300.633 152.307L300.789 152.307L300.785 158.25Z" fill="#3F3D56"/>
<path d="M276.734 169.988C277.807 170.105 278.886 169.838 279.782 169.236C280.678 168.633 281.333 167.733 281.631 166.694C281.93 165.655 281.854 164.543 281.415 163.555C280.977 162.567 280.205 161.766 279.235 161.292C277.849 163.076 277.03 165.236 276.886 167.493L276.734 169.988Z" fill="#3F3D56"/>
<path d="M318.483 146.828L323.901 154.903L323.904 151.101L321.038 146.831L318.483 146.828Z" fill="#F2F2F2"/>
<path d="M334.197 146.838L338.367 153.052V149.25L336.751 146.841L334.197 146.838Z" fill="#F2F2F2"/>
<path d="M311.404 146.825L317.033 155.215H319.588L313.959 146.825H311.404Z" fill="#F2F2F2"/>
<path d="M80.0341 243.999C80.0341 243.999 80.0341 259.892 83.6722 264.061C83.6722 264.061 84.4518 266.145 84.7117 266.926C84.857 267.371 85.0306 267.807 85.2315 268.229V269.271C85.2315 269.271 92.2479 268.49 93.0275 266.666L91.7282 265.103C91.7282 265.103 91.4683 264.842 91.7282 264.061C91.7727 263.975 91.7935 263.88 91.7885 263.784C91.7834 263.688 91.7527 263.595 91.6995 263.515C91.6464 263.435 91.5727 263.371 91.4863 263.33C91.3999 263.288 91.3039 263.27 91.2084 263.279L89.3894 259.11L89.6492 241.915L88.3499 218.205L77.1755 217.684L80.0341 243.999Z" fill="#2F2E41"/>
<path d="M85.7511 267.708C85.7511 267.708 83.932 273.179 85.7511 273.44C87.5702 273.701 103.422 273.961 103.162 271.877C102.902 269.792 97.7051 270.053 97.7051 270.053L92.2478 266.666L85.7511 267.708Z" fill="#2F2E41"/>
<path d="M69.6393 218.205C69.4162 220.656 69.9613 223.115 71.1985 225.24C73.2775 228.887 71.9781 241.133 71.9781 241.133L53.5275 257.286C53.5275 257.286 57.1656 263.539 58.465 263.279C59.7643 263.018 80.2939 246.344 80.2939 246.344L88.3499 219.247L69.6393 218.205Z" fill="#2F2E41"/>
<path d="M53.781 256.596C53.781 256.596 48.1978 257.985 48.9522 259.665C49.7065 261.345 57.9734 274.908 59.5902 273.572C61.207 272.236 58.2051 267.974 58.2051 267.974L58.137 261.54L53.781 256.596Z" fill="#2F2E41"/>
<path d="M79.7742 175.737C83.0752 175.737 85.7512 173.054 85.7512 169.744C85.7512 166.435 83.0752 163.752 79.7742 163.752C76.4732 163.752 73.7972 166.435 73.7972 169.744C73.7972 173.054 76.4732 175.737 79.7742 175.737Z" fill="#FFB8B8"/>
<path d="M75.0714 171.859L75.3358 179.57L80.365 181.562C80.365 181.562 80.8582 173.667 81.5544 173.229C82.2506 172.791 75.0714 171.859 75.0714 171.859Z" fill="#FFB8B8"/>
<path d="M81.5932 182.511C81.5932 182.511 74.5768 175.476 72.7577 175.737C70.9386 175.997 70.9386 176.779 70.9386 177.3C70.9386 177.821 71.4584 178.082 70.9386 178.342C70.4189 178.603 69.8992 178.342 69.8992 179.124C69.8992 179.906 65.2215 187.722 66.7807 196.32C68.3399 204.918 70.159 209.086 69.3794 213.776C68.5998 218.466 69.1195 219.508 69.1195 219.508C69.1195 219.508 88.6097 221.071 88.8695 219.247C89.1294 217.424 88.0899 218.466 89.3893 217.163C90.6886 215.86 90.1689 215.86 90.1689 215.079C90.1689 214.297 84.4518 182.511 81.5932 182.511Z" fill="#575A89"/>
<path d="M77.9551 217.945C77.9551 217.945 81.0735 225.5 83.4123 223.677C85.7511 221.853 82.3729 215.6 82.3729 215.6L77.9551 217.945Z" fill="#FFB8B8"/>
<path d="M70.4189 183.032C70.4189 183.032 64.3133 183.733 66.5865 194.977C68.8597 206.22 77.6952 219.247 77.6952 219.247L83.6722 216.381L75.8761 201.009L77.6952 191.369C77.6952 191.369 78.7347 182.25 70.4189 183.032Z" fill="#575A89"/>
<path opacity="0.2" d="M75.7461 201.14L84.3217 215.469L83.5425 216.251L75.7461 201.14Z" fill="black"/>
<path opacity="0.2" d="M71.2072 207.818L78.085 219.117H75.7461L71.2072 207.818Z" fill="black"/>
<path d="M77.0689 173.345C77.5761 173.139 78.1017 172.982 78.6386 172.876C79.5686 172.561 80.3552 171.922 80.8557 171.075C81.3562 170.229 81.5376 169.23 81.3669 168.261C81.2928 168.014 81.2596 167.757 81.2685 167.5C81.342 167.222 81.4961 166.973 81.7111 166.783C81.9261 166.593 82.1924 166.471 82.4764 166.433C83.0441 166.367 83.6062 166.259 84.1585 166.112C84.5625 165.93 84.9121 165.645 85.1728 165.286C85.4335 164.926 85.5962 164.505 85.6449 164.064C85.73 163.175 85.5327 162.283 85.0812 161.514L84.88 162.094C84.5731 161.834 84.3454 161.492 84.2226 161.108C83.9939 161.147 83.779 161.244 83.5983 161.389C83.4176 161.535 83.2772 161.725 83.1906 161.94C82.8677 162.131 82.8212 161.347 82.4644 161.231C82.3075 161.212 82.1489 161.251 82.0191 161.342C81.3003 161.678 80.4652 161.39 79.6941 161.204C78.3588 160.883 76.967 160.881 75.631 161.199C74.73 161.377 73.8974 161.806 73.2297 162.438C72.733 163.003 72.3514 163.661 72.1064 164.373C71.3588 166.074 71.0473 167.935 71.2001 169.787C71.3873 171.29 72.0142 172.703 73.0015 173.848C73.5158 174.442 75.1939 176.515 76.114 176.162C77.2702 175.718 75.7067 174.067 77.0689 173.345Z" fill="#2F2E41"/>
<path opacity="0.2" d="M86.7437 228.352L79.9053 246.328L80.2508 246.46L87.0892 228.484L86.7437 228.352Z" fill="black"/>
<path d="M81.5565 183.942C81.7606 183.942 81.9261 183.776 81.9261 183.571C81.9261 183.366 81.7606 183.2 81.5565 183.2C81.3523 183.2 81.1868 183.366 81.1868 183.571C81.1868 183.776 81.3523 183.942 81.5565 183.942Z" fill="#D0CDE1"/>
<path d="M84.6987 193.949C84.6592 193.949 84.6207 193.936 84.589 193.913C84.5572 193.889 84.5338 193.856 84.5221 193.818L81.3798 183.626C81.3654 183.579 81.3701 183.528 81.3929 183.484C81.4158 183.441 81.455 183.408 81.5018 183.394C81.5486 183.379 81.5992 183.384 81.6426 183.407C81.6859 183.43 81.7184 183.469 81.7329 183.516L84.8752 193.709C84.8837 193.737 84.8856 193.766 84.8808 193.794C84.8759 193.823 84.8644 193.85 84.8473 193.873C84.8301 193.897 84.8077 193.916 84.7819 193.929C84.7561 193.942 84.7276 193.949 84.6987 193.949Z" fill="#D0CDE1"/>
<path d="M416.728 179.473C420.175 179.473 422.97 176.672 422.97 173.216C422.97 169.759 420.175 166.958 416.728 166.958C413.281 166.958 410.486 169.759 410.486 173.216C410.486 176.672 413.281 179.473 416.728 179.473Z" fill="#2F2E41"/>
<path d="M407.856 211.122L406.909 213.02C406.909 213.02 403.881 217.953 405.963 218.523C408.045 219.092 408.707 214.823 408.707 214.823L409.086 212.546L407.856 211.122Z" fill="#A0616A"/>
<path d="M411.641 201.445L409.275 207.707L406.91 212.071L409.843 213.969L412.209 209.794L415.048 203.248L411.641 201.445Z" fill="#D0CDE1"/>
<path d="M418.36 230.762L423.091 235.79L431.419 249.927L435.015 248.788L430.756 240.344C430.756 240.344 428.296 233.893 427.066 233.039C425.835 232.185 423.754 226.587 423.754 226.587L421.482 224.785L418.36 230.762Z" fill="#A0616A"/>
<path d="M408.613 233.513L408.234 235.126C408.234 235.126 407.004 240.154 405.112 242.431L400.569 250.306L397.163 249.167L403.881 233.228L408.613 233.513Z" fill="#A0616A"/>
<path d="M415.663 180.525C418.485 180.525 420.773 178.231 420.773 175.402C420.773 172.572 418.485 170.279 415.663 170.279C412.841 170.279 410.553 172.572 410.553 175.402C410.553 178.231 412.841 180.525 415.663 180.525Z" fill="#A0616A"/>
<path d="M419.685 177.916L420.347 183.419L416.089 185.506C416.089 185.506 416.089 180.762 414.953 179.529L419.685 177.916Z" fill="#A0616A"/>
<path d="M433.028 213.399L433.501 215.012C433.501 215.012 436.623 221.179 433.974 221.179C431.324 221.179 430.851 215.487 430.851 215.487L430.567 214.064L433.028 213.399Z" fill="#A0616A"/>
<path d="M411.262 206.948L411.925 211.597L403.881 228.58L403.408 233.513L418.454 235.411L421.766 226.208L427.066 233.039L424.038 226.018C424.038 226.018 423.091 221.274 423.375 220.041C423.659 218.807 423.186 212.641 422.334 211.123C421.482 209.604 411.262 206.948 411.262 206.948Z" fill="#2F2E41"/>
<path d="M430.851 249.927L435.393 248.409L436.813 250.686C436.813 250.686 439.557 251.444 439.462 253.437C439.476 255.249 439.634 257.058 439.935 258.845L437.948 259.034L437.191 255.145L433.311 259.793C433.311 259.793 426.403 260.173 426.119 259.034C425.835 257.896 431.04 256.663 431.04 256.663L431.892 252.583L430.851 249.927Z" fill="#2F2E41"/>
<path d="M396.879 248.598L401.042 249.926V250.875C401.042 250.875 402.272 252.773 402.083 254.386C401.894 255.998 401.042 259.888 401.042 259.888H398.866L398.96 256.283L394.607 259.888C394.607 259.888 386.848 259.319 386.848 258.086C386.848 256.852 392.809 255.999 392.809 255.999L396.879 248.598Z" fill="#2F2E41"/>
<path d="M415.805 184.368C415.805 184.368 419.685 180.478 421.483 181.426V183.134C421.483 183.134 424.132 184.368 424.227 186.265C424.321 188.163 427.066 205.43 427.066 205.43L433.501 227.915C433.501 227.915 431.513 231.046 424.227 227.536L419.685 212.071C419.685 212.071 424.511 229.528 422.145 229.244C419.779 228.959 410.505 207.327 410.505 207.327L411.168 197.081C411.168 197.081 409.654 192.622 412.682 189.586L415.805 184.368Z" fill="#D0CDE1"/>
<path d="M422.429 184.937C422.429 184.937 424.037 185.506 425.173 187.973C426.309 190.44 431.986 207.802 431.986 207.802L433.5 213.969L429.242 215.012L427.16 208.656L419.401 194.235C419.401 194.235 418.17 186.645 422.429 184.937Z" fill="#D0CDE1"/>
<path d="M422.055 171.315C422.034 170.726 421.869 170.151 421.574 169.641C421.28 169.131 420.865 168.702 420.366 168.391C420.885 167.345 421.349 166.151 421.007 165.034C420.868 164.601 420.616 164.213 420.278 163.909C419.94 163.606 419.527 163.398 419.082 163.308C418.586 163.239 418.082 163.246 417.587 163.327L415.255 163.592C414.492 163.622 413.745 163.824 413.07 164.182C412.735 164.395 412.454 164.683 412.251 165.024C412.047 165.365 411.926 165.749 411.898 166.145C411.869 166.541 411.934 166.939 412.087 167.306C412.24 167.672 412.476 167.998 412.777 168.256C411.146 169.564 410.056 170.557 409.313 172.515C410.558 171.498 412.113 170.94 413.719 170.934C414.811 170.875 415.882 171.245 416.706 171.965C417.53 172.685 418.042 173.7 418.132 174.792C418.122 175.34 418.17 175.888 418.275 176.425C418.335 176.693 418.484 176.933 418.699 177.104C418.913 177.275 419.179 177.367 419.453 177.365C419.378 177.376 418.915 175.984 419.241 175.342L419.246 175.331C419.318 175.199 419.436 175.097 419.577 175.046C419.704 174.998 419.839 174.977 419.974 174.984C420.109 174.992 420.241 175.029 420.361 175.092C420.481 175.155 420.587 175.243 420.67 175.349C420.754 175.456 420.814 175.58 420.846 175.712C421.027 176.409 421.317 177.298 421.57 177.062C421.901 176.753 421.762 174.027 421.851 173.604C422.029 172.855 422.098 172.084 422.055 171.315Z" fill="#2F2E41"/>
<path d="M420.34 168.372C420.34 168.372 415.211 168.707 412.759 168.26L420.34 168.372Z" fill="#D0CDE1"/>
<path d="M420.049 167.684C420.568 166.638 421.033 165.444 420.69 164.328C420.53 163.824 420.218 163.383 419.796 163.067C420.118 163.215 420.406 163.429 420.641 163.696C420.877 163.962 421.055 164.274 421.163 164.612C421.506 165.729 421.042 166.923 420.522 167.968C420.11 167.907 421.083 168.237 420.049 167.684Z" fill="#2F2E41"/>
<path opacity="0.2" d="M418.407 194.282L425.788 207.375L428.627 214.491L424.652 207.66L418.407 194.282Z" fill="black"/>
<path d="M69.4826 268.698C69.4826 268.698 67.1688 273.747 65.2901 275.163C63.3878 273.744 61.0287 268.698 61.0287 268.698C61.0287 268.698 58.7148 273.747 56.8361 275.163C54.9339 273.744 52.5747 268.698 52.5747 268.698C52.5747 268.698 46.0032 275.433 46.0214 278.623C46.0218 278.702 46.0263 278.782 46.0349 278.861C46.2592 280.949 53.0533 281.482 56.7857 280.497C59.5679 281.134 62.4574 281.134 65.2397 280.497C68.9561 281.497 75.8884 280.924 76.0911 278.812C76.0987 278.733 76.1023 278.653 76.1018 278.574C76.0837 275.384 69.4826 268.698 69.4826 268.698Z" fill="#FF9900"/>
<path d="M207.54 268.698C207.54 268.698 205.226 273.747 203.347 275.163C201.445 273.744 199.086 268.698 199.086 268.698C199.086 268.698 196.772 273.747 194.893 275.163C192.991 273.744 190.632 268.698 190.632 268.698C190.632 268.698 184.06 275.433 184.078 278.623C184.079 278.702 184.083 278.782 184.092 278.861C184.316 280.949 191.11 281.482 194.843 280.497C197.625 281.134 200.514 281.134 203.297 280.497C207.013 281.497 213.945 280.924 214.148 278.812C214.156 278.733 214.159 278.653 214.159 278.574C214.141 275.384 207.54 268.698 207.54 268.698Z" fill="#E6E6E6"/>
<path d="M344.703 268.698C344.703 268.698 342.389 273.747 340.511 275.163C338.608 273.744 336.249 268.698 336.249 268.698C336.249 268.698 333.935 273.747 332.057 275.163C330.154 273.744 327.795 268.698 327.795 268.698C327.795 268.698 321.224 275.433 321.242 278.623C321.242 278.702 321.247 278.782 321.255 278.861C321.48 280.949 328.274 281.482 332.006 280.497C334.788 281.134 337.678 281.134 340.46 280.497C344.177 281.497 351.109 280.924 351.312 278.812C351.319 278.733 351.323 278.653 351.322 278.574C351.304 275.384 344.703 268.698 344.703 268.698Z" fill="#FF9900"/>
<path d="M77.7718 23.6959L77.7113 23.7289C77.0571 24.0877 76.3239 24.2769 75.5783 24.2795C74.8326 24.2822 74.0981 24.0981 73.4415 23.744C73.4036 23.7235 73.366 23.7033 73.3286 23.6833C72.6719 23.3319 71.9385 23.1493 71.1942 23.1519C70.4499 23.1545 69.7178 23.3422 69.0635 23.6981L69.007 23.729C68.3528 24.0877 67.6197 24.2769 66.874 24.2796C66.1284 24.2822 65.3939 24.0981 64.7372 23.744C64.6979 23.7227 64.6589 23.7018 64.62 23.6811C63.9711 23.3313 63.2461 23.1475 62.5093 23.1462C61.7725 23.1449 61.0468 23.3261 60.3967 23.6736C58.4106 24.7459 55.7258 26.5793 55.7376 28.6498C55.7381 28.7317 55.7427 28.8135 55.7515 28.8949C55.9824 31.0452 62.9777 31.5931 66.8205 30.5797C69.6851 31.235 72.6602 31.235 75.5248 30.5797C79.3512 31.6093 86.4888 31.0194 86.6974 28.8445C86.7053 28.763 86.709 28.6812 86.7085 28.5993C86.6967 26.5277 83.9881 24.7135 81.9896 23.6563C81.3376 23.3143 80.6115 23.1389 79.8758 23.1459C79.14 23.1528 78.4173 23.3417 77.7718 23.6959Z" fill="#E6E6E6"/>
<path d="M207.774 46.422L207.714 46.455C207.06 46.8137 206.326 47.003 205.581 47.0056C204.835 47.0082 204.101 46.8242 203.444 46.4701C203.406 46.4496 203.368 46.4294 203.331 46.4094C202.674 46.058 201.941 45.8754 201.197 45.878C200.452 45.8806 199.72 46.0682 199.066 46.4242L199.009 46.4551C198.355 46.8138 197.622 47.003 196.876 47.0056C196.131 47.0083 195.396 46.8242 194.74 46.4701C194.7 46.4488 194.661 46.4279 194.622 46.4072C193.974 46.0574 193.249 45.8737 192.512 45.8723C191.775 45.871 191.049 46.0522 190.399 46.3997C188.413 47.472 185.728 49.3054 185.74 51.3759C185.74 51.4578 185.745 51.5396 185.754 51.621C185.985 53.7713 192.98 54.3192 196.823 53.3058C199.688 53.9611 202.663 53.9611 205.527 53.3058C209.354 54.3354 216.491 53.7455 216.7 51.5706C216.708 51.4891 216.711 51.4073 216.711 51.3255C216.699 49.2538 213.991 47.4396 211.992 46.3824C211.34 46.0404 210.614 45.8651 209.878 45.872C209.142 45.8789 208.42 46.0678 207.774 46.422Z" fill="#E6E6E6"/>
<path d="M297.626 24.6817L297.565 24.7148C296.911 25.0735 296.178 25.2628 295.432 25.2654C294.686 25.268 293.952 25.0839 293.295 24.7298C293.257 24.7094 293.22 24.6892 293.182 24.6692C292.526 24.3178 291.792 24.1352 291.048 24.1378C290.304 24.1403 289.572 24.328 288.917 24.684L288.861 24.7148C288.207 25.0735 287.473 25.2628 286.728 25.2654C285.982 25.268 285.248 25.0839 284.591 24.7298C284.552 24.7086 284.513 24.6876 284.474 24.6669C283.825 24.3171 283.1 24.1334 282.363 24.1321C281.626 24.1308 280.901 24.3119 280.25 24.6594C278.264 25.7317 275.58 27.5651 275.591 29.6357C275.592 29.7176 275.596 29.7994 275.605 29.8808C275.836 32.031 282.831 32.5789 286.674 31.5656C289.539 32.2209 292.514 32.2209 295.379 31.5656C299.205 32.5952 306.343 32.0053 306.551 29.8304C306.559 29.7489 306.563 29.6671 306.562 29.5852C306.551 27.5135 303.842 25.6993 301.843 24.6421C301.191 24.3001 300.465 24.1248 299.73 24.1317C298.994 24.1386 298.271 24.3276 297.626 24.6817Z" fill="#E6E6E6"/>
<path d="M459.582 280.162H0V281H459.582V280.162Z" fill="#3F3D56"/>
</svg>
