<svg width="729" height="408" viewBox="0 0 729 408" fill="none" xmlns="http://www.w3.org/2000/svg">
<path d="M92.4966 402.136L91.2455 401.79C105.195 325.593 140.25 256.4 189.953 206.955C227.531 169.631 272.223 144.669 319.823 134.419C367.422 124.168 416.363 128.967 462.036 148.362C507.709 167.758 548.612 201.113 580.893 245.286C613.175 289.46 635.772 342.998 646.559 400.86L645.309 401.21C615.781 241.958 502.154 130.735 368.988 130.735C237.567 130.735 121.286 244.875 92.4966 402.136Z" fill="#3F3D56"/>
<path d="M576.81 215.963C596.043 215.963 611.635 196.811 611.635 173.186C611.635 149.562 596.043 130.41 576.81 130.41C557.577 130.41 541.985 149.562 541.985 173.186C541.985 196.811 557.577 215.963 576.81 215.963Z" fill="#FF6584"/>
<path d="M563.58 344.208H562.298V406.425H563.58V344.208Z" fill="#3F3D56"/>
<path d="M575.415 352.137C575.496 373.892 563.035 391.6 563.035 391.6C563.035 391.6 550.442 374.034 550.36 352.278C550.279 330.523 562.74 312.815 562.74 312.815C562.74 312.815 575.333 330.381 575.415 352.137Z" fill="#72CAAA"/>
<path opacity="0.1" d="M575.415 352.137C575.496 373.892 563.035 391.6 563.035 391.6C563.035 391.6 550.442 374.034 550.36 352.278C550.279 330.523 562.74 312.815 562.74 312.815C562.74 312.815 575.333 330.381 575.415 352.137Z" fill="black"/>
<path opacity="0.4" d="M321.235 220.508C332.3 220.508 341.27 209.49 341.27 195.899C341.27 182.307 332.3 171.289 321.235 171.289C310.17 171.289 301.201 182.307 301.201 195.899C301.201 209.49 310.17 220.508 321.235 220.508Z" fill="#72CAAA"/>
<path opacity="0.4" d="M284.156 224.916C291.918 224.916 298.21 217.187 298.21 207.653C298.21 198.118 291.918 190.389 284.156 190.389C276.394 190.389 270.102 198.118 270.102 207.653C270.102 217.187 276.394 224.916 284.156 224.916Z" fill="#72CAAA"/>
<path opacity="0.4" d="M133.483 274.532C141.245 274.532 147.538 266.803 147.538 257.269C147.538 247.735 141.245 240.005 133.483 240.005C125.721 240.005 119.429 247.735 119.429 257.269C119.429 266.803 125.721 274.532 133.483 274.532Z" fill="#72CAAA"/>
<path opacity="0.4" d="M549.034 218.484C560.099 218.484 569.069 207.466 569.069 193.874C569.069 180.283 560.099 169.265 549.034 169.265C537.969 169.265 528.999 180.283 528.999 193.874C528.999 207.466 537.969 218.484 549.034 218.484Z" fill="#72CAAA"/>
<path d="M36.3093 399.507C37.3954 404.438 41.1155 407.493 41.1155 407.493C41.1155 407.493 43.0747 402.551 41.9886 397.62C40.9025 392.688 37.1824 389.634 37.1824 389.634C37.1824 389.634 35.2232 394.575 36.3093 399.507Z" fill="#3F3D56"/>
<path d="M37.9052 398.447C40.8855 402.011 41.2495 407.489 41.2495 407.489C41.2495 407.489 36.7816 407.189 33.8013 403.625C30.8211 400.062 30.457 394.584 30.457 394.584C30.457 394.584 34.925 394.883 37.9052 398.447Z" fill="#72CAAA"/>
<path d="M428.7 399.507C429.786 404.438 433.506 407.493 433.506 407.493C433.506 407.493 435.465 402.551 434.379 397.62C433.293 392.688 429.573 389.634 429.573 389.634C429.573 389.634 427.614 394.575 428.7 399.507Z" fill="#3F3D56"/>
<path d="M430.296 398.447C433.276 402.011 433.64 407.489 433.64 407.489C433.64 407.489 429.172 407.189 426.192 403.625C423.212 400.062 422.848 394.584 422.848 394.584C422.848 394.584 427.316 394.883 430.296 398.447Z" fill="#72CAAA"/>
<path d="M43.6868 362.437L41.0343 357.007L65.7921 330.94H129.456V338.542L106.466 368.954L79.9393 375.47L43.6868 362.437Z" fill="#3F3D56"/>
<path d="M140.414 346.237V329.244H132.079V334.602L129.456 330.94L108.234 357.007L104.697 361.351L100.276 383.073L108.234 406.967H148.908V358.093L140.414 346.237Z" fill="#CCCCCC"/>
<path d="M108.234 357.006H41.0343V406.967H108.234V357.006Z" fill="#F2F2F2"/>
<path d="M98.95 372.755H84.8027V387.96H98.95V372.755Z" fill="#3F3D56"/>
<path d="M79.0553 372.212H66.6764V406.967H79.0553V372.212Z" fill="#CCCCCC"/>
<path d="M52.529 377.642V372.212H47.2241V377.642H52.0866H52.529Z" fill="#3F3D56"/>
<path d="M52.0866 381.986H47.2241V387.417H52.529V381.986H52.0866Z" fill="#3F3D56"/>
<path d="M61.3711 372.212H56.0659V377.642H61.3711V372.212Z" fill="#3F3D56"/>
<path d="M61.3711 381.987H56.0659V387.417H61.3711V381.987Z" fill="#3F3D56"/>
<path d="M127.245 378.186V372.755H121.939V378.186H126.802H127.245Z" fill="#3F3D56"/>
<path d="M126.802 382.53H121.939V387.96H127.245V382.53H126.802Z" fill="#3F3D56"/>
<path d="M136.087 372.755H130.782V378.185H136.087V372.755Z" fill="#3F3D56"/>
<path d="M136.087 382.53H130.782V387.96H136.087V382.53Z" fill="#3F3D56"/>
<path d="M299.51 362.437L296.858 357.007L321.615 330.94H385.279V338.542L362.289 368.954L335.763 375.47L299.51 362.437Z" fill="#3F3D56"/>
<path d="M396.237 346.237V329.244H387.902V334.602L385.279 330.94L364.058 357.007L360.52 361.351L356.099 383.073L364.058 406.967H404.731V358.093L396.237 346.237Z" fill="#CCCCCC"/>
<path d="M364.057 357.006H296.858V406.967H364.057V357.006Z" fill="#F2F2F2"/>
<path d="M354.773 372.755H340.626V387.96H354.773V372.755Z" fill="#3F3D56"/>
<path d="M334.879 372.212H322.5V406.967H334.879V372.212Z" fill="#CCCCCC"/>
<path d="M308.352 377.642V372.212H303.047V377.642H307.91H308.352Z" fill="#3F3D56"/>
<path d="M307.91 381.986H303.047V387.417H308.352V381.986H307.91Z" fill="#3F3D56"/>
<path d="M317.194 372.212H311.889V377.642H317.194V372.212Z" fill="#3F3D56"/>
<path d="M317.194 381.987H311.889V387.417H317.194V381.987Z" fill="#3F3D56"/>
<path d="M383.068 378.186V372.755H377.762V378.186H382.626H383.068Z" fill="#3F3D56"/>
<path d="M382.626 382.53H377.762V387.96H383.068V382.53H382.626Z" fill="#3F3D56"/>
<path d="M391.91 372.755H386.605V378.185H391.91V372.755Z" fill="#3F3D56"/>
<path d="M391.91 382.53H386.605V387.96H391.91V382.53Z" fill="#3F3D56"/>
<path d="M179.855 271.205L175.434 266.86L200.192 239.707H262.971V263.601L222.298 297.271L179.855 271.205Z" fill="#3F3D56"/>
<path d="M274.417 254.938V240.25H266.082V243.847L262.971 239.707L242.634 266.86L234.676 273.377L222.337 384.11L240.946 406.967H284.192V267.946L274.417 254.938Z" fill="#CCCCCC"/>
<path d="M242.634 266.86H175.434V406.967H242.634V266.86Z" fill="#F2F2F2"/>
<path d="M213.897 372.755H201.518V406.967H213.897V372.755Z" fill="#CCCCCC"/>
<path d="M188.255 382.53V377.1H182.95V382.53H187.813H188.255Z" fill="#3F3D56"/>
<path d="M187.813 386.874H182.95V392.305H188.255V386.874H187.813Z" fill="#3F3D56"/>
<path d="M197.097 377.099H191.792V382.53H197.097V377.099Z" fill="#3F3D56"/>
<path d="M197.097 386.874H191.792V392.305H197.097V386.874Z" fill="#3F3D56"/>
<path d="M224.508 382.53V377.1H219.203V382.53H224.066H224.508Z" fill="#3F3D56"/>
<path d="M224.066 386.874H219.203V392.305H224.508V386.874H224.066Z" fill="#3F3D56"/>
<path d="M233.35 377.099H228.045V382.53H233.35V377.099Z" fill="#3F3D56"/>
<path d="M233.35 386.874H228.045V392.305H233.35V386.874Z" fill="#3F3D56"/>
<path d="M261.644 273.919V268.489H256.339V273.919H261.203H261.644Z" fill="#3F3D56"/>
<path d="M261.203 278.264H256.339V283.694H261.644V278.264H261.203Z" fill="#3F3D56"/>
<path d="M270.487 268.489H265.181V273.919H270.487V268.489Z" fill="#3F3D56"/>
<path d="M270.487 278.264H265.181V283.694H270.487V278.264Z" fill="#3F3D56"/>
<path d="M261.644 304.331V298.9H256.339V304.331H261.203H261.644Z" fill="#3F3D56"/>
<path d="M261.203 308.675H256.339V314.105H261.644V308.675H261.203Z" fill="#3F3D56"/>
<path d="M270.487 298.9H265.181V304.33H270.487V298.9Z" fill="#3F3D56"/>
<path d="M270.487 308.675H265.181V314.105H270.487V308.675Z" fill="#3F3D56"/>
<path d="M261.644 334.742V329.311H256.339V334.742H261.203H261.644Z" fill="#3F3D56"/>
<path d="M261.203 339.086H256.339V344.516H261.644V339.086H261.203Z" fill="#3F3D56"/>
<path d="M270.487 329.311H265.181V334.741H270.487V329.311Z" fill="#3F3D56"/>
<path d="M270.487 339.086H265.181V344.516H270.487V339.086Z" fill="#3F3D56"/>
<path d="M261.644 365.152V359.721H256.339V365.152H261.203H261.644Z" fill="#3F3D56"/>
<path d="M261.203 369.497H256.339V374.927H261.644V369.497H261.203Z" fill="#3F3D56"/>
<path d="M270.487 359.722H265.181V365.152H270.487V359.722Z" fill="#3F3D56"/>
<path d="M270.487 369.497H265.181V374.927H270.487V369.497Z" fill="#3F3D56"/>
<path d="M234.234 273.919H182.95V286.953H234.234V273.919Z" fill="#3F3D56"/>
<path d="M234.234 299.986H182.95V313.019H234.234V299.986Z" fill="#3F3D56"/>
<path d="M234.234 326.052H182.95V339.086H234.234V326.052Z" fill="#3F3D56"/>
<path d="M234.234 352.119H182.95V365.152H234.234V352.119Z" fill="#3F3D56"/>
<path d="M438.243 271.205L433.822 266.86L458.58 239.707H521.359V263.601L480.685 297.271L438.243 271.205Z" fill="#3F3D56"/>
<path d="M532.805 254.938V240.25H524.47V243.847L521.359 239.707L501.022 266.86L493.064 273.377L480.725 384.11L499.334 406.967H542.58V267.946L532.805 254.938Z" fill="#CCCCCC"/>
<path d="M501.022 266.86H433.822V406.967H501.022V266.86Z" fill="#F2F2F2"/>
<path d="M472.285 372.755H459.906V406.967H472.285V372.755Z" fill="#CCCCCC"/>
<path d="M446.643 382.53V377.1H441.338V382.53H446.201H446.643Z" fill="#3F3D56"/>
<path d="M446.201 386.874H441.338V392.305H446.643V386.874H446.201Z" fill="#3F3D56"/>
<path d="M455.485 377.099H450.18V382.53H455.485V377.099Z" fill="#3F3D56"/>
<path d="M455.485 386.874H450.18V392.305H455.485V386.874Z" fill="#3F3D56"/>
<path d="M482.896 382.53V377.1H477.591V382.53H482.454H482.896Z" fill="#3F3D56"/>
<path d="M482.454 386.874H477.591V392.305H482.896V386.874H482.454Z" fill="#3F3D56"/>
<path d="M491.738 377.099H486.432V382.53H491.738V377.099Z" fill="#3F3D56"/>
<path d="M491.738 386.874H486.432V392.305H491.738V386.874Z" fill="#3F3D56"/>
<path d="M520.032 273.919V268.489H514.727V273.919H519.591H520.032Z" fill="#3F3D56"/>
<path d="M519.591 278.264H514.727V283.694H520.032V278.264H519.591Z" fill="#3F3D56"/>
<path d="M528.875 268.489H523.569V273.919H528.875V268.489Z" fill="#3F3D56"/>
<path d="M528.875 278.264H523.569V283.694H528.875V278.264Z" fill="#3F3D56"/>
<path d="M520.032 304.331V298.9H514.727V304.331H519.591H520.032Z" fill="#3F3D56"/>
<path d="M519.591 308.675H514.727V314.105H520.032V308.675H519.591Z" fill="#3F3D56"/>
<path d="M528.875 298.9H523.569V304.33H528.875V298.9Z" fill="#3F3D56"/>
<path d="M528.875 308.675H523.569V314.105H528.875V308.675Z" fill="#3F3D56"/>
<path d="M520.032 334.742V329.311H514.727V334.742H519.591H520.032Z" fill="#3F3D56"/>
<path d="M519.591 339.086H514.727V344.516H520.032V339.086H519.591Z" fill="#3F3D56"/>
<path d="M528.875 329.311H523.569V334.741H528.875V329.311Z" fill="#3F3D56"/>
<path d="M528.875 339.086H523.569V344.516H528.875V339.086Z" fill="#3F3D56"/>
<path d="M520.032 365.152V359.721H514.727V365.152H519.591H520.032Z" fill="#3F3D56"/>
<path d="M519.591 369.497H514.727V374.927H520.032V369.497H519.591Z" fill="#3F3D56"/>
<path d="M528.875 359.722H523.569V365.152H528.875V359.722Z" fill="#3F3D56"/>
<path d="M528.875 369.497H523.569V374.927H528.875V369.497Z" fill="#3F3D56"/>
<path d="M492.622 273.919H441.338V286.953H492.622V273.919Z" fill="#3F3D56"/>
<path d="M492.622 299.986H441.338V313.019H492.622V299.986Z" fill="#3F3D56"/>
<path d="M492.622 326.052H441.338V339.086H492.622V326.052Z" fill="#3F3D56"/>
<path d="M492.622 352.119H441.338V365.152H492.622V352.119Z" fill="#3F3D56"/>
<path d="M579.94 271.205L575.519 266.86L600.277 239.707H663.055V263.601L622.382 297.271L579.94 271.205Z" fill="#3F3D56"/>
<path d="M674.501 254.938V240.25H666.166V243.847L663.055 239.707L642.718 266.86L634.761 273.377L622.422 384.11L641.03 406.967H684.276V267.946L674.501 254.938Z" fill="#CCCCCC"/>
<path d="M642.719 266.86H575.519V406.967H642.719V266.86Z" fill="#F2F2F2"/>
<path d="M613.982 372.755H601.603V406.967H613.982V372.755Z" fill="#CCCCCC"/>
<path d="M588.34 382.53V377.1H583.035V382.53H587.898H588.34Z" fill="#3F3D56"/>
<path d="M587.898 386.874H583.035V392.305H588.34V386.874H587.898Z" fill="#3F3D56"/>
<path d="M597.182 377.099H591.876V382.53H597.182V377.099Z" fill="#3F3D56"/>
<path d="M597.182 386.874H591.876V392.305H597.182V386.874Z" fill="#3F3D56"/>
<path d="M624.592 382.53V377.1H619.287V382.53H624.15H624.592Z" fill="#3F3D56"/>
<path d="M624.15 386.874H619.287V392.305H624.592V386.874H624.15Z" fill="#3F3D56"/>
<path d="M633.434 377.099H628.129V382.53H633.434V377.099Z" fill="#3F3D56"/>
<path d="M633.434 386.874H628.129V392.305H633.434V386.874Z" fill="#3F3D56"/>
<path d="M661.729 273.919V268.489H656.424V273.919H661.287H661.729Z" fill="#3F3D56"/>
<path d="M661.287 278.264H656.424V283.694H661.729V278.264H661.287Z" fill="#3F3D56"/>
<path d="M670.571 268.489H665.266V273.919H670.571V268.489Z" fill="#3F3D56"/>
<path d="M670.571 278.264H665.266V283.694H670.571V278.264Z" fill="#3F3D56"/>
<path d="M661.729 304.331V298.9H656.424V304.331H661.287H661.729Z" fill="#3F3D56"/>
<path d="M661.287 308.675H656.424V314.105H661.729V308.675H661.287Z" fill="#3F3D56"/>
<path d="M670.571 298.9H665.266V304.33H670.571V298.9Z" fill="#3F3D56"/>
<path d="M670.571 308.675H665.266V314.105H670.571V308.675Z" fill="#3F3D56"/>
<path d="M661.729 334.742V329.311H656.424V334.742H661.287H661.729Z" fill="#3F3D56"/>
<path d="M661.287 339.086H656.424V344.516H661.729V339.086H661.287Z" fill="#3F3D56"/>
<path d="M670.571 329.311H665.266V334.741H670.571V329.311Z" fill="#3F3D56"/>
<path d="M670.571 339.086H665.266V344.516H670.571V339.086Z" fill="#3F3D56"/>
<path d="M661.729 365.152V359.721H656.424V365.152H661.287H661.729Z" fill="#3F3D56"/>
<path d="M661.287 369.497H656.424V374.927H661.729V369.497H661.287Z" fill="#3F3D56"/>
<path d="M670.571 359.722H665.266V365.152H670.571V359.722Z" fill="#3F3D56"/>
<path d="M670.571 369.497H665.266V374.927H670.571V369.497Z" fill="#3F3D56"/>
<path d="M634.318 273.919H583.034V286.953H634.318V273.919Z" fill="#3F3D56"/>
<path d="M634.318 299.986H583.034V313.019H634.318V299.986Z" fill="#3F3D56"/>
<path d="M634.318 326.052H583.034V339.086H634.318V326.052Z" fill="#3F3D56"/>
<path d="M634.318 352.119H583.034V365.152H634.318V352.119Z" fill="#3F3D56"/>
<path d="M729 406.425H0V408H729V406.425Z" fill="#3F3D56"/>
<path d="M162.855 344.208H161.573V406.425H162.855V344.208Z" fill="#3F3D56"/>
<path d="M174.689 352.137C174.771 373.892 162.31 391.6 162.31 391.6C162.31 391.6 149.716 374.034 149.635 352.278C149.553 330.523 162.014 312.815 162.014 312.815C162.014 312.815 174.608 330.381 174.689 352.137Z" fill="#72CAAA"/>
<path d="M291.087 344.208H289.805V406.425H291.087V344.208Z" fill="#3F3D56"/>
<path d="M302.921 352.137C303.003 373.892 290.542 391.6 290.542 391.6C290.542 391.6 277.949 374.034 277.867 352.278C277.785 330.523 290.246 312.815 290.246 312.815C290.246 312.815 302.84 330.381 302.921 352.137Z" fill="#72CAAA"/>
<path d="M546.91 344.208H545.628V406.425H546.91V344.208Z" fill="#3F3D56"/>
<path d="M558.745 352.137C558.826 373.892 546.365 391.6 546.365 391.6C546.365 391.6 533.772 374.034 533.69 352.278C533.608 330.523 546.07 312.815 546.07 312.815C546.07 312.815 558.663 330.381 558.745 352.137Z" fill="#72CAAA"/>
<path d="M376.682 135.499C390.138 135.499 401.046 132.485 401.046 128.766C401.046 125.047 390.138 122.032 376.682 122.032C363.226 122.032 352.318 125.047 352.318 128.766C352.318 132.485 363.226 135.499 376.682 135.499Z" fill="#72CAAA"/>
<path d="M404.252 34.6526C404.252 53.7907 376.041 107.896 376.041 107.896C376.041 107.896 347.83 53.7907 347.83 34.6526C347.83 25.4621 350.802 16.6481 356.093 10.1495C361.383 3.65088 368.559 0 376.041 0C383.523 0 390.699 3.65088 395.989 10.1495C401.28 16.6481 404.252 25.4621 404.252 34.6526Z" fill="#72CAAA"/>
<path d="M376.041 54.3416C384.893 54.3416 392.07 45.5265 392.07 34.6526C392.07 23.7787 384.893 14.9636 376.041 14.9636C367.188 14.9636 360.012 23.7787 360.012 34.6526C360.012 45.5265 367.188 54.3416 376.041 54.3416Z" fill="#F2F2F2"/>
</svg>
