<svg width="482" height="299" viewBox="0 0 482 299" fill="none" xmlns="http://www.w3.org/2000/svg">
<g clip-path="url(#clip0)">
<path d="M10.2079 196.981C13.2551 202.649 19.7223 205.081 19.7223 205.081C19.7223 205.081 21.2491 198.326 18.2019 192.659C15.1547 186.991 8.68741 184.558 8.68741 184.558C8.68741 184.558 7.16065 191.314 10.2079 196.981Z" fill="#3F3D56"/>
<path d="M12.3023 195.117C17.8037 198.436 19.9225 205.029 19.9225 205.029C19.9225 205.029 13.1217 206.241 7.62022 202.921C2.11877 199.602 0 193.009 0 193.009C0 193.009 6.80082 191.798 12.3023 195.117Z" fill="#FF9900"/>
<path d="M300.305 102.96C300.305 148.273 273.444 164.095 240.308 164.095C207.173 164.095 180.312 148.273 180.312 102.96C180.312 57.646 240.308 1.52588e-05 240.308 1.52588e-05C240.308 1.52588e-05 300.305 57.646 300.305 102.96Z" fill="#F2F2F2"/>
<path d="M238.123 157.164L238.737 119.24L264.31 72.3234L238.834 113.291L239.11 96.2391L256.734 62.2953L239.183 91.7265L239.68 61.0579L258.552 34.0345L239.758 56.2352L240.068 0L238.118 74.4455L238.278 71.3746L219.09 41.9205L237.97 77.2698L236.183 111.521L236.129 110.612L214.009 79.6166L236.062 113.824L235.839 118.108L235.798 118.172L235.817 118.524L231.281 205.423H237.341L238.068 160.537L260.067 126.414L238.123 157.164Z" fill="#3F3D56"/>
<path d="M468.056 102.96C468.056 148.273 441.194 164.095 408.059 164.095C374.924 164.095 348.062 148.273 348.062 102.96C348.062 57.646 408.059 1.52588e-05 408.059 1.52588e-05C408.059 1.52588e-05 468.056 57.646 468.056 102.96Z" fill="#F2F2F2"/>
<path d="M405.873 157.164L406.488 119.24L432.06 72.3234L406.584 113.291L406.86 96.2391L424.485 62.2953L406.933 91.7265L407.43 61.0579L426.303 34.0345L407.509 56.2352L407.819 0L405.868 74.4455L406.028 71.3746L386.841 41.9205L405.721 77.2698L403.933 111.521L403.88 110.612L381.76 79.6166L403.813 113.824L403.589 118.108L403.549 118.172L403.567 118.524L399.031 205.423H405.092L405.819 160.537L427.818 126.414L405.873 157.164Z" fill="#3F3D56"/>
<path d="M46.1486 139.324C58.8239 139.324 69.0992 129.019 69.0992 116.308C69.0992 103.596 58.8239 93.2918 46.1486 93.2918C33.4733 93.2918 23.198 103.596 23.198 116.308C23.198 129.019 33.4733 139.324 46.1486 139.324Z" fill="#FF6584"/>
<path d="M17.0298 159.6L13.6609 153.968L45.105 126.939H125.962V134.823L96.7637 166.357L63.0733 173.114L17.0298 159.6Z" fill="#3F3D56"/>
<path d="M139.881 142.801V125.181H129.295V130.737L125.962 126.939L99.0097 153.968L94.5176 158.473L88.9028 180.998L99.0097 205.775H150.668V155.095L139.881 142.801Z" fill="#CCCCCC"/>
<path d="M99.0096 153.969H13.6606V205.775H99.0096V153.969Z" fill="#F2F2F2"/>
<path d="M87.2182 170.299H69.25V186.066H87.2182V170.299Z" fill="#3F3D56"/>
<path d="M61.9502 169.736H46.228V205.775H61.9502V169.736Z" fill="#CCCCCC"/>
<path d="M28.2599 175.367V169.736H21.522V175.367H27.6983H28.2599Z" fill="#3F3D56"/>
<path d="M27.6983 179.872H21.522V185.503H28.2599V179.872H27.6983Z" fill="#3F3D56"/>
<path d="M39.49 169.736H32.752V175.367H39.49V169.736Z" fill="#3F3D56"/>
<path d="M39.49 179.872H32.752V185.503H39.49V179.872Z" fill="#3F3D56"/>
<path d="M123.155 175.93V170.299H116.416V175.93H122.593H123.155Z" fill="#3F3D56"/>
<path d="M122.593 180.435H116.416V186.066H123.155V180.435H122.593Z" fill="#3F3D56"/>
<path d="M134.385 170.299H127.646V175.93H134.385V170.299Z" fill="#3F3D56"/>
<path d="M134.385 180.435H127.646V186.066H134.385V180.435Z" fill="#3F3D56"/>
<path d="M179.08 159.569L175.711 153.938L207.156 126.909H288.012V134.792L258.814 166.326L225.123 173.083L179.08 159.569Z" fill="#3F3D56"/>
<path d="M301.931 142.77V125.15H291.345V130.706L288.012 126.909L261.06 153.938L256.568 158.442L250.953 180.967L261.06 205.744H312.718V155.064L301.931 142.77Z" fill="#CCCCCC"/>
<path d="M261.06 153.938H175.711V205.744H261.06V153.938Z" fill="#F2F2F2"/>
<path d="M249.268 170.268H231.3V186.035H249.268V170.268Z" fill="#3F3D56"/>
<path d="M224.001 169.705H208.278V205.744H224.001V169.705Z" fill="#CCCCCC"/>
<path d="M190.31 175.336V169.705H183.572V175.336H189.749H190.31Z" fill="#3F3D56"/>
<path d="M189.749 179.841H183.572V185.472H190.31V179.841H189.749Z" fill="#3F3D56"/>
<path d="M201.54 169.705H194.802V175.336H201.54V169.705Z" fill="#3F3D56"/>
<path d="M201.54 179.841H194.802V185.472H201.54V179.841Z" fill="#3F3D56"/>
<path d="M285.205 175.899V170.268H278.467V175.899H284.643H285.205Z" fill="#3F3D56"/>
<path d="M284.643 180.404H278.467V186.035H285.205V180.404H284.643Z" fill="#3F3D56"/>
<path d="M296.435 170.268H289.697V175.899H296.435V170.268Z" fill="#3F3D56"/>
<path d="M296.435 180.404H289.697V186.035H296.435V180.404Z" fill="#3F3D56"/>
<path d="M336.267 159.569L332.898 153.938L364.342 126.909H445.199V134.792L416.001 166.326L382.31 173.083L336.267 159.569Z" fill="#3F3D56"/>
<path d="M459.118 142.77V125.15H448.532V130.706L445.199 126.909L418.247 153.938L413.755 158.442L408.14 180.967L418.247 205.744H469.905V155.064L459.118 142.77Z" fill="#CCCCCC"/>
<path d="M418.247 153.938H332.898V205.744H418.247V153.938Z" fill="#F2F2F2"/>
<path d="M406.455 170.268H388.487V186.035H406.455V170.268Z" fill="#3F3D56"/>
<path d="M381.187 169.705H365.465V205.744H381.187V169.705Z" fill="#CCCCCC"/>
<path d="M347.497 175.336V169.705H340.759V175.336H346.936H347.497Z" fill="#3F3D56"/>
<path d="M346.936 179.841H340.759V185.472H347.497V179.841H346.936Z" fill="#3F3D56"/>
<path d="M358.727 169.705H351.989V175.336H358.727V169.705Z" fill="#3F3D56"/>
<path d="M358.727 179.841H351.989V185.472H358.727V179.841Z" fill="#3F3D56"/>
<path d="M442.392 175.899V170.268H435.654V175.899H441.83H442.392Z" fill="#3F3D56"/>
<path d="M441.83 180.404H435.654V186.035H442.392V180.404H441.83Z" fill="#3F3D56"/>
<path d="M453.621 170.268H446.883V175.899H453.621V170.268Z" fill="#3F3D56"/>
<path d="M453.621 180.404H446.883V186.035H453.621V180.404Z" fill="#3F3D56"/>
<path d="M321.592 172.296H320.747V205.773H321.592V172.296Z" fill="#3F3D56"/>
<path d="M329.391 176.562C329.445 188.268 321.232 197.796 321.232 197.796C321.232 197.796 312.933 188.345 312.879 176.639C312.825 164.933 321.038 155.405 321.038 155.405C321.038 155.405 329.337 164.857 329.391 176.562Z" fill="#FF9900"/>
<path d="M167.785 171.449H166.94V204.925H167.785V171.449Z" fill="#3F3D56"/>
<path d="M175.584 175.715C175.638 187.421 167.426 196.948 167.426 196.948C167.426 196.948 159.127 187.497 159.073 175.791C159.019 164.085 167.231 154.558 167.231 154.558C167.231 154.558 175.531 164.009 175.584 175.715Z" fill="#FF9900"/>
<path opacity="0.1" d="M175.584 175.715C175.638 187.421 167.426 196.948 167.426 196.948C167.426 196.948 159.127 187.497 159.073 175.791C159.019 164.085 167.231 154.558 167.231 154.558C167.231 154.558 175.531 164.009 175.584 175.715Z" fill="black"/>
<path d="M156.799 171.449H155.954V204.925H156.799V171.449Z" fill="#3F3D56"/>
<path d="M164.598 175.715C164.652 187.421 156.44 196.948 156.44 196.948C156.44 196.948 148.14 187.497 148.087 175.791C148.033 164.085 156.245 154.558 156.245 154.558C156.245 154.558 164.545 164.009 164.598 175.715Z" fill="#FF9900"/>
<path d="M482 204.927H1.56592V205.775H482V204.927Z" fill="#3F3D56"/>
<path d="M110.338 179.57C110.338 179.57 110.771 180.067 110.029 181.03C109.288 181.992 109.887 184.081 111.296 184.134C112.705 184.187 113.388 184.779 113.048 185.559C112.709 186.338 112.3 188.191 113.835 187.909C115.369 187.627 115.854 188.24 115.582 188.711C115.311 189.182 116.267 187.774 116.267 187.774C116.267 187.774 117.122 189.052 118.171 188.158C119.221 187.263 119.638 179.157 117.498 179.02C115.359 178.882 110.338 179.57 110.338 179.57Z" fill="#2F2E41"/>
<path d="M121.185 218.12L121.672 221.542H123.866L123.135 217.631L121.185 218.12Z" fill="#FFB8B8"/>
<path d="M124.11 219.465C124.11 219.465 127.035 222.154 126.304 222.398C125.572 222.643 122.891 225.576 122.403 225.821C121.967 226.039 117.284 227.532 118.015 225.821C118.553 224.708 119.4 223.774 120.453 223.132L120.941 220.198L124.11 219.465Z" fill="#F2F2F2"/>
<path opacity="0.1" d="M124.11 219.465C124.11 219.465 127.035 222.154 126.304 222.398C125.572 222.643 122.891 225.576 122.403 225.821C121.967 226.039 117.284 227.532 118.015 225.821C118.553 224.708 119.4 223.774 120.453 223.132L120.941 220.198L124.11 219.465Z" fill="black"/>
<path d="M124.11 215.553L124.598 218.976H126.792L126.06 215.064L124.11 215.553Z" fill="#FFB8B8"/>
<path d="M114.942 206.468L118.137 195.873C118.137 195.873 112.774 190.983 116.431 189.516C120.088 188.05 121.063 195.384 121.063 195.384L119.844 208.096H114.968L114.942 206.468Z" fill="#FFB8B8"/>
<path d="M122.403 198.684C122.403 198.684 116.103 206.788 117.059 207.992C118.015 209.197 119.722 216.531 119.722 216.531C119.722 216.531 119.478 219.465 120.453 219.465C121.428 219.465 123.866 218.976 123.866 218.242C123.866 217.509 121.672 208.219 121.672 208.219L128.01 199.907L122.403 198.684Z" fill="#FF9900"/>
<path d="M122.891 199.173L129.229 195.751C129.229 195.751 133.617 197.951 132.398 199.907C131.179 201.862 125.573 206.996 125.573 206.996C125.573 206.996 127.279 215.308 127.035 215.553C126.791 215.797 124.11 216.775 123.379 216.531C122.647 216.286 118.747 206.752 119.722 206.263C120.697 205.774 123.866 200.64 123.866 200.64L122.891 199.173Z" fill="#FF9900"/>
<path d="M105.583 292.709C105.583 292.709 109.971 295.398 110.458 295.398C110.946 295.398 117.528 297.109 114.603 298.332C111.677 299.554 100.464 297.843 100.707 297.109C100.951 296.376 100.707 291.975 101.195 291.975C101.682 291.975 105.583 292.709 105.583 292.709Z" fill="#2F2E41"/>
<path d="M110.458 292.318C110.458 292.318 114.846 295.007 115.334 295.007C115.821 295.007 122.403 296.718 119.478 297.941C116.553 299.163 105.339 297.452 105.583 296.718C105.827 295.985 105.583 291.584 106.07 291.584C106.558 291.584 110.458 292.318 110.458 292.318Z" fill="#2F2E41"/>
<path d="M105.404 241.337C105.404 241.337 106.558 247.97 107.777 250.659C108.996 253.349 107.533 266.061 106.802 268.017C106.07 269.973 99.0007 293.198 101.195 293.442C103.389 293.687 107.777 293.442 107.777 293.442L114.846 271.195L113.627 241.369L105.404 241.337Z" fill="#575A88"/>
<path opacity="0.1" d="M105.404 241.337C105.404 241.337 106.558 247.97 107.777 250.659C108.996 253.349 107.533 266.061 106.802 268.017C106.07 269.973 99.0007 293.198 101.195 293.442C103.389 293.687 107.777 293.442 107.777 293.442L114.846 271.195L113.627 241.369L105.404 241.337Z" fill="black"/>
<path d="M107.289 240.734C107.289 240.734 108.264 247.335 110.458 248.801C112.652 250.268 111.921 251.735 111.921 251.735L110.946 264.692C110.946 264.692 101.439 288.162 104.364 291.095C107.289 294.029 109.971 292.807 111.19 292.562C112.409 292.318 114.603 287.184 113.384 285.717C112.165 284.25 115.822 275.449 116.797 273.982C117.772 272.515 116.797 270.56 118.016 270.071C119.234 269.582 121.916 266.403 121.916 264.203C121.916 262.003 125.329 238.533 123.135 237.067C120.941 235.6 106.878 240.094 106.878 240.094L107.289 240.734Z" fill="#575A88"/>
<path d="M102.657 206.507C105.619 206.507 108.02 204.099 108.02 201.129C108.02 198.159 105.619 195.751 102.657 195.751C99.6953 195.751 97.2942 198.159 97.2942 201.129C97.2942 204.099 99.6953 206.507 102.657 206.507Z" fill="#FFB8B8"/>
<path d="M114.846 185.972C117.27 185.972 119.234 184.001 119.234 181.571C119.234 179.141 117.27 177.171 114.846 177.171C112.423 177.171 110.458 179.141 110.458 181.571C110.458 184.001 112.423 185.972 114.846 185.972Z" fill="#FFB8B8"/>
<path d="M106.314 201.129C106.314 201.129 109.239 206.507 110.702 206.507C112.165 206.507 104.851 212.13 104.851 212.13C104.851 212.13 102.414 205.041 101.926 204.796C101.439 204.552 106.314 201.129 106.314 201.129Z" fill="#FFB8B8"/>
<path d="M107.289 206.018C107.289 206.018 100.951 208.219 101.195 208.952C101.438 209.686 99.4882 211.397 99.4882 212.13C99.4882 212.864 99.0007 219.465 101.926 224.843C104.851 230.221 109.483 234.133 107.289 236.578C105.095 239.022 101.682 243.178 105.339 243.178C108.996 243.178 114.846 237.8 120.209 239.756C125.572 241.712 124.354 234.377 124.354 234.377C124.354 234.377 125.085 228.755 123.622 227.043C122.16 225.332 117.04 213.108 117.04 211.641C117.04 210.175 112.165 204.552 110.946 204.552C109.727 204.552 107.289 206.018 107.289 206.018Z" fill="#8985A8"/>
<path d="M116.065 184.26C116.065 184.26 118.05 188.045 118.155 188.72C118.259 189.394 121.672 184.26 121.672 184.26L117.772 181.571L116.065 184.26Z" fill="#FFB8B8"/>
<path d="M116.797 187.194L120.941 182.793L125.816 184.994C125.816 184.994 130.364 195.017 130.65 195.751C130.936 196.484 123.379 199.907 122.647 199.907C121.916 199.907 116.797 192.328 116.797 192.328C116.797 192.328 115.578 188.661 116.797 187.194Z" fill="#F2F2F2"/>
<path d="M114.846 193.061V197.462H117.772L116.81 193.061H114.846Z" fill="#FFB8B8"/>
<path d="M116.515 196.362C116.146 196.357 115.783 196.465 115.477 196.672C115.17 196.879 114.933 197.174 114.798 197.519C114.608 198.036 114.672 198.579 115.578 198.806C117.528 199.295 117.772 198.806 117.772 198.806C117.772 198.806 121.157 198.318 120.44 197.34C119.722 196.362 117.772 196.362 117.772 196.362H116.515Z" fill="#FFB8B8"/>
<path d="M127.035 217.509C127.035 217.509 129.96 220.198 129.229 220.442C128.498 220.687 125.816 223.621 125.329 223.865C124.893 224.084 120.209 225.576 120.941 223.865C121.478 222.752 122.325 221.819 123.378 221.176L123.866 218.242L127.035 217.509Z" fill="#F2F2F2"/>
<path d="M100.747 196.989C101.082 196.792 101.479 196.546 101.488 196.156C101.479 196.013 101.429 195.875 101.343 195.76C101.258 195.645 101.141 195.558 101.006 195.509C100.736 195.415 100.449 195.377 100.164 195.395C100.054 195.389 99.9444 195.4 99.8381 195.427C99.5604 195.513 99.4004 195.796 99.1817 195.988C98.835 196.231 98.4368 196.391 98.0182 196.455C97.3339 196.633 96.6776 196.905 96.0683 197.265C95.9479 197.326 95.8426 197.413 95.7597 197.52C95.6638 197.716 95.621 197.934 95.6357 198.152C95.5806 198.982 95.0848 199.704 94.7146 200.448C94.3444 201.192 94.1012 202.118 94.5357 202.826C94.7081 203.046 94.8691 203.275 95.0178 203.512C95.3258 204.156 94.9414 204.948 95.1639 205.626C95.2635 205.893 95.4232 206.133 95.6307 206.328C96.0588 206.76 96.5862 207.081 97.1667 207.261C97.7207 207.432 98.408 207.546 98.625 208.085C98.6731 208.329 98.7418 208.568 98.8303 208.8C98.9294 208.919 99.0515 209.016 99.1893 209.085C99.327 209.154 99.4774 209.194 99.6313 209.203C99.9713 209.281 100.321 209.307 100.669 209.279C100.843 209.264 101.012 209.213 101.166 209.131C101.32 209.048 101.455 208.935 101.564 208.798C101.662 208.605 101.784 208.425 101.926 208.262C102.279 207.966 102.816 208.2 103.269 208.122C103.453 208.087 103.622 208 103.759 207.872C103.895 207.744 103.992 207.579 104.038 207.397C104.051 207.204 104.104 207.015 104.194 206.844C104.476 206.483 105.217 206.738 105.403 206.319C105.523 206.047 105.271 205.759 105.026 205.59C104.608 205.345 104.207 205.072 103.825 204.773C103.636 204.62 103.489 204.421 103.4 204.195C103.31 203.968 103.281 203.722 103.315 203.481C103.483 202.772 104.406 202.382 104.437 201.654C104.424 201.445 104.361 201.243 104.254 201.063C104.147 200.884 103.998 200.733 103.821 200.623C103.465 200.406 103.124 200.167 102.8 199.906C102.581 199.694 102.416 199.427 102.179 199.237C101.71 198.943 101.167 198.79 100.614 198.794C100.32 198.764 99.1494 198.628 99.1955 198.18C99.2337 197.807 100.449 197.164 100.747 196.989Z" fill="#2F2E41"/>
<path d="M116.797 186.949C116.797 186.949 114.115 187.927 114.115 189.15C114.115 190.372 112.896 194.284 114.115 194.284C115.334 194.284 117.772 193.345 117.772 193.345L116.797 186.949Z" fill="#F2F2F2"/>
<path d="M116.065 204.552C116.065 204.552 123.135 202.107 123.379 202.107C123.622 202.107 127.035 200.151 126.791 199.418L125.816 193.306C125.816 193.306 121.916 185.238 124.597 185.238C127.279 185.238 128.742 191.594 128.742 191.594C128.742 191.594 134.592 202.596 131.423 205.041C128.254 207.485 115.09 211.886 114.359 211.152C113.627 210.419 116.065 204.552 116.065 204.552Z" fill="#FFB8B8"/>
<path d="M122.891 188.661L124.537 190.251L122.404 192.328C122.404 192.328 119.478 191.106 119.722 191.839C119.966 192.572 121.428 194.773 122.404 194.773C123.379 194.773 128.454 191.595 128.476 190.617C128.498 189.639 125.329 186.216 124.598 185.972C123.866 185.727 122.891 188.661 122.891 188.661Z" fill="#FFB8B8"/>
<path d="M119.797 186.957C119.797 186.957 123.379 190.128 123.866 190.128C124.354 190.128 125.24 185.363 125.24 185.363C125.24 185.363 122.35 183.475 121.28 183.99C120.209 184.505 119.797 186.957 119.797 186.957Z" fill="#F2F2F2"/>
<path d="M107.289 207.485C107.289 207.485 107.289 204.063 114.603 204.063H117.772L116.309 212.13L111.434 213.597L107.289 207.485Z" fill="#8985A8"/>
<path d="M123.264 179.788C122.548 179.784 121.832 179.74 121.12 179.655C120.561 178.3 119.849 177.164 119.079 176.74C118.456 176.261 117.765 175.881 117.028 175.611C115.404 174.919 112.7 175.351 112.542 176.138C109.345 177.669 110.153 180.359 110.153 180.359C110.65 181.412 111.764 180.945 112.709 180.468C112.797 180.849 113.001 181.192 113.292 181.451C113.584 181.709 113.949 181.87 114.337 181.91C115.898 181.969 116.655 182.625 116.278 183.488C115.902 184.352 115.45 186.404 117.15 186.092C118.849 185.78 119.387 186.459 119.086 186.98C118.785 187.502 119.844 185.943 119.844 185.943C119.844 185.943 120.791 187.358 121.953 186.367C122.071 186.254 122.155 186.11 122.196 185.951C122.561 186.167 122.991 186.243 123.408 186.164C124.8 185.539 123.935 184.072 123.935 184.072C123.935 184.072 125.795 183.786 125.195 183.833C124.596 183.881 124.217 183.102 125.231 181.699C126.245 180.295 124.204 179.819 123.264 179.788Z" fill="#2F2E41"/>
<path d="M113.833 178.687L113.139 178.456L112.447 180.543L113.141 180.775L113.833 178.687Z" fill="#FF9900"/>
<path d="M165.514 298.153H44.2432V299H165.514V298.153Z" fill="#3F3D56"/>
<path d="M426.224 258.32H304.954V259.167H426.224V258.32Z" fill="#3F3D56"/>
<path d="M394.411 182.21L401.225 180.877C401.225 180.877 402.887 175.209 404.882 175.876C406.877 176.543 403.552 182.21 403.552 182.21L394.078 186.544L394.411 182.21Z" fill="#A0616A"/>
<path d="M353.023 187.877L350.032 191.711C350.032 191.711 345.71 191.545 347.04 193.878C348.369 196.212 351.361 194.878 351.528 194.378C351.694 193.878 356.514 189.544 356.514 189.544L353.023 187.877Z" fill="#A0616A"/>
<path d="M365.24 183.46L367.733 182.127C367.733 182.127 378.371 181.293 382.36 183.96C386.349 186.627 365.572 186.961 365.572 186.961L365.24 183.46Z" fill="#FF9900"/>
<path d="M369.977 181.043C369.977 181.043 368.647 177.876 370.476 177.543C371.519 177.338 372.591 177.338 373.634 177.543L371.639 179.21L369.977 181.043Z" fill="#3F3D56"/>
<path opacity="0.1" d="M369.977 181.043C369.977 181.043 368.647 177.876 370.476 177.543C371.519 177.338 372.591 177.338 373.634 177.543L371.639 179.21L369.977 181.043Z" fill="black"/>
<path d="M360.835 200.212L356.015 199.879L356.846 201.379C356.846 201.379 350.198 203.379 352.358 209.047C353.876 212.862 355.711 216.542 357.844 220.048L360.004 224.215C360.004 224.215 364.492 224.882 364.658 223.549C364.825 222.215 364.658 221.548 363.827 220.882C363.065 220.193 362.59 219.24 362.498 218.215C362.498 217.548 362.664 216.881 362.165 216.548C361.666 216.214 361.5 215.714 361.5 214.714C361.5 213.714 359.672 210.047 359.672 210.047C359.672 210.047 365.489 209.88 367.318 211.381C369.146 212.881 375.13 218.548 375.13 218.548C375.461 218.895 375.741 219.288 375.961 219.715C376.293 220.382 376.293 220.715 376.958 221.048C377.623 221.382 377.124 222.715 376.958 222.882C376.792 223.049 375.13 229.716 375.13 229.716C375.13 229.716 373.301 232.883 375.296 233.05C377.291 233.217 379.119 233.383 379.285 233.05C379.47 232.588 379.692 232.142 379.95 231.716C380.449 230.883 379.95 229.049 379.95 229.049C379.95 229.049 384.77 222.882 383.274 219.048C381.778 215.214 378.62 206.547 378.62 206.547L373.8 204.546L364.991 201.379L360.835 200.212Z" fill="#2F2E41"/>
<path d="M360.503 223.382C360.503 223.382 359.506 227.216 359.173 227.383C358.841 227.549 355.184 230.716 357.677 231.216C360.171 231.716 361.999 231.55 362.498 231.05C362.996 230.55 362.83 230.05 363.661 229.883C364.492 229.716 365.988 229.216 365.822 228.049C365.656 226.882 364.825 223.715 364.326 223.382C363.827 223.049 360.503 223.382 360.503 223.382Z" fill="#2F2E41"/>
<path d="M374.964 231.883C374.964 231.883 373.468 233.05 374.299 235.217C375.13 237.384 376.293 239.718 376.293 239.718C376.293 239.718 377.623 243.885 379.784 243.218C380.173 243.08 380.518 242.842 380.787 242.527C381.055 242.213 381.236 241.834 381.312 241.427C381.465 240.836 381.49 240.22 381.386 239.619C381.282 239.018 381.051 238.446 380.709 237.942L379.451 236.05L378.122 232.55L374.964 231.883Z" fill="#2F2E41"/>
<path d="M370.808 182.877C370.808 182.877 368.814 182.71 368.481 183.21C368.149 183.71 366.653 190.378 368.481 191.045C370.31 191.711 375.795 192.878 376.626 192.045C377.457 191.211 377.789 183.877 377.789 183.877L370.808 182.877Z" fill="#A0616A"/>
<path opacity="0.1" d="M370.808 182.877C370.808 182.877 368.814 182.71 368.481 183.21C368.149 183.71 366.653 190.378 368.481 191.045C370.31 191.711 375.795 192.878 376.626 192.045C377.457 191.211 377.789 183.877 377.789 183.877L370.808 182.877Z" fill="black"/>
<path d="M367.816 188.378C367.816 188.378 370.143 190.711 371.639 190.378C373.135 190.044 376.626 188.544 376.958 187.877C377.291 187.211 381.446 187.044 381.446 187.044L376.958 199.546L380.116 210.047C380.116 210.047 381.945 207.88 376.958 207.713C371.972 207.547 365.323 205.046 364.16 201.713C364.16 201.713 356.846 200.712 356.514 200.546C356.181 200.379 357.345 199.379 357.345 199.379L362.165 198.045L365.656 193.545L367.816 188.378Z" fill="#F2F2F2"/>
<path d="M369.312 183.21C369.312 183.21 370.143 182.043 369.312 182.043C367.98 182.016 366.648 182.071 365.323 182.21C364.492 182.377 361.334 181.543 361.002 182.543C360.669 183.544 360.669 189.711 361.334 190.211C361.999 190.711 362.331 190.711 361.5 191.711C360.669 192.711 358.675 196.045 359.173 197.212C359.672 198.379 353.854 198.712 354.685 200.046C354.911 200.427 355.226 200.747 355.602 200.979C355.978 201.212 356.405 201.349 356.846 201.379C356.846 201.379 357.179 198.712 359.173 200.046C361.168 201.379 363.827 204.713 365.988 202.546C368.149 200.379 368.98 198.379 369.146 195.545C369.32 193.428 369.208 191.298 368.814 189.211C368.481 187.544 369.312 183.21 369.312 183.21Z" fill="#FF9900"/>
<path d="M377.956 186.377C377.956 186.377 379.285 187.544 377.956 190.378C376.626 193.211 373.135 199.879 375.961 204.213C378.787 208.547 379.95 209.714 379.285 210.547C378.881 211.075 378.649 211.715 378.62 212.381L380.449 211.714C380.649 210.351 380.983 209.011 381.446 207.713C382.111 206.046 380.116 201.046 380.116 201.046L380.781 194.545C380.781 194.545 383.441 190.378 383.773 190.211C384.105 190.044 383.108 182.877 383.108 182.877C383.108 182.877 381.446 182.377 380.615 182.877C379.784 183.377 377.956 186.377 377.956 186.377Z" fill="#FF9900"/>
<path d="M361.999 182.71H361.002L354.187 186.211C354.187 186.211 353.688 184.044 353.356 184.544C353.023 185.044 353.189 186.377 352.358 186.711C351.527 187.044 351.029 187.544 352.358 188.211C353.688 188.878 353.854 188.378 353.854 189.544C353.854 190.711 354.852 190.878 355.683 190.544C356.514 190.211 356.68 190.044 357.511 190.378C358.342 190.711 357.843 191.211 359.007 190.711C360.17 190.211 363.162 190.378 363.162 190.378L361.999 182.71Z" fill="#FF9900"/>
<path d="M381.945 183.21L383.108 182.877C383.108 182.877 386.599 183.21 387.43 183.21C388.261 183.21 389.092 183.044 389.59 183.044C390.089 183.044 392.582 182.71 392.915 182.377C393.247 182.043 394.743 181.21 394.909 181.71C395.075 182.21 396.904 185.377 395.242 186.877C393.58 188.378 393.247 187.711 392.25 188.378C391.253 189.044 383.274 190.378 383.108 190.211C382.942 190.044 381.945 183.21 381.945 183.21Z" fill="#FF9900"/>
<path d="M375.13 189.544C377.884 189.544 380.116 187.305 380.116 184.544C380.116 181.782 377.884 179.543 375.13 179.543C372.376 179.543 370.144 181.782 370.144 184.544C370.144 187.305 372.376 189.544 375.13 189.544Z" fill="#A0616A"/>
<path d="M371.46 184.745C371.517 184.854 371.552 184.973 371.564 185.095C371.63 185.378 371.789 185.632 372.015 185.815C372.242 185.997 372.522 186.099 372.813 186.104C372.789 186.212 372.788 186.323 372.81 186.43C372.832 186.538 372.876 186.64 372.94 186.729C373.004 186.819 373.086 186.894 373.181 186.949C373.275 187.005 373.38 187.039 373.489 187.051C373.826 186.618 374.078 186.125 374.23 185.597C374.268 185.39 374.353 185.194 374.48 185.026C374.68 184.859 374.93 184.764 375.19 184.759C376.517 184.587 377.852 184.488 379.19 184.46C379.371 184.473 379.553 184.436 379.715 184.352C380.091 184.109 379.966 183.524 379.729 183.144C379.261 182.401 378.55 181.844 377.718 181.57C377.112 181.406 376.491 181.303 375.866 181.262C375.036 181.129 374.201 181.042 373.362 181.002C372.517 180.963 371.681 181.187 370.968 181.644C370.468 181.997 369.648 182.987 370.049 183.611C370.114 183.711 370.317 183.761 370.403 183.863C370.521 184.001 370.521 184.211 370.655 184.337C370.877 184.547 371.281 184.481 371.46 184.745Z" fill="#2F2E41"/>
<path d="M375.13 176.209C375.13 176.209 369.479 178.21 369.977 181.043C370.476 183.877 371.972 187.211 375.13 187.044C378.288 186.877 379.95 183.43 379.95 183.43L379.119 178.71C379.119 178.71 375.961 176.209 375.13 176.209Z" fill="#3F3D56"/>
<path d="M374.417 186.212C374.417 186.212 376.638 183.795 377.757 185.196C377.757 185.196 377.706 185.127 374.417 186.212Z" fill="#2F2E41"/>
<path d="M378.612 248.021C375.632 248.021 371.946 247.031 368.353 243.453C359.559 234.694 351.204 233.816 351.121 233.808L351.152 233.476C351.236 233.484 359.71 234.374 368.588 243.217C373.15 247.761 377.858 248.039 381.005 247.472C383.084 247.093 385.063 246.293 386.822 245.121L387.019 245.39C385.222 246.589 383.2 247.409 381.077 247.798C380.264 247.946 379.438 248.02 378.612 248.021Z" fill="#2F2E41"/>
<path d="M355.6 240.801C356.701 240.801 357.594 239.905 357.594 238.801C357.594 237.696 356.701 236.8 355.6 236.8C354.498 236.8 353.605 237.696 353.605 238.801C353.605 239.905 354.498 240.801 355.6 240.801Z" fill="#2F2E41"/>
<path d="M369.728 250.135C370.829 250.135 371.722 249.24 371.722 248.135C371.722 247.031 370.829 246.135 369.728 246.135C368.626 246.135 367.733 247.031 367.733 248.135C367.733 249.24 368.626 250.135 369.728 250.135Z" fill="#2F2E41"/>
</g>
<defs>
<clipPath id="clip0">
<rect width="482" height="299" fill="white"/>
</clipPath>
</defs>
</svg>
